<svg width="262" height="80" viewBox="0 0 262 80" fill="none" xmlns="http://www.w3.org/2000/svg">
<path d="M32.3438 30.4062C31.2812 30.8854 30.1875 31.2812 29.0625 31.5938C27.9583 31.8854 26.8438 32.1667 25.7188 32.4375C25.6771 32.4375 25.5625 32.4583 25.375 32.5C25.2083 32.5417 25.0312 32.5938 24.8438 32.6562C24.6562 32.6979 24.4792 32.7396 24.3125 32.7812C24.1667 32.8021 24.0938 32.8125 24.0938 32.8125C23.8438 32.7292 23.5938 32.7292 23.3438 32.8125C23.1146 32.875 22.875 32.9583 22.625 33.0625C22.3958 33.1667 22.1458 33.25 21.875 33.3125C21.6042 33.3542 21.3021 33.3021 20.9688 33.1562C20.9062 33.1354 20.7917 33.1562 20.625 33.2188C20.4583 33.2604 20.2917 33.3229 20.125 33.4062C19.9583 33.4896 19.8125 33.5938 19.6875 33.7188C19.5625 33.8229 19.4896 33.9167 19.4688 34L19.6562 34.1875C19.6771 34.25 19.6458 34.375 19.5625 34.5625C19.4792 34.7292 19.3854 34.9167 19.2812 35.125C19.1771 35.3125 19.0625 35.4896 18.9375 35.6562C18.8333 35.8229 18.75 35.9271 18.6875 35.9688C18.7083 36.1562 18.6562 36.3854 18.5312 36.6562C18.4271 36.9062 18.3021 37.1771 18.1562 37.4688C18.0312 37.7604 17.9062 38.0625 17.7812 38.375C17.6771 38.6875 17.625 38.9792 17.625 39.25C17.625 39.3333 17.6354 39.4167 17.6562 39.5C17.6771 39.5833 17.6771 39.6562 17.6562 39.7188L17.625 39.7812C17.4167 39.9479 17.2604 40.1667 17.1562 40.4375C17.0729 40.6875 17 40.9583 16.9375 41.25C16.8958 41.5208 16.8333 41.7917 16.75 42.0625C16.6875 42.3333 16.5729 42.5729 16.4062 42.7812V42.8125L16.375 42.8438C16.1042 42.9688 15.875 42.9896 15.6875 42.9062C15.5208 42.8229 15.3646 42.6979 15.2188 42.5312C15.0938 42.3646 14.9688 42.1771 14.8438 41.9688C14.7396 41.7396 14.6146 41.5417 14.4688 41.375C14.3854 41.1042 14.3542 40.875 14.375 40.6875C14.3958 40.4792 14.4896 40.2708 14.6562 40.0625L14.7188 40.0312C14.5938 39.8646 14.5521 39.7188 14.5938 39.5938C14.6562 39.4479 14.7188 39.3125 14.7812 39.1875C14.8646 39.0625 14.9167 38.9375 14.9375 38.8125C14.9792 38.6667 14.9167 38.5 14.75 38.3125L14.8125 38.25C15.0833 37.9792 15.2292 37.6771 15.25 37.3438C15.2708 36.9896 15.25 36.6354 15.1875 36.2812C15.1458 35.9271 15.1146 35.5729 15.0938 35.2188C15.0938 34.8646 15.1979 34.5417 15.4062 34.25L15.4375 34.2188C15.4583 34.0938 15.375 33.9271 15.1875 33.7188C15 33.5104 14.8542 33.3542 14.75 33.25C14.625 33.5625 14.4583 33.7292 14.25 33.75C14.0625 33.75 13.8438 33.7188 13.5938 33.6562C13.3646 33.5938 13.1354 33.5417 12.9062 33.5C12.6771 33.4583 12.4688 33.5312 12.2812 33.7188L12.125 33.8438L12.0625 33.7188C11.9792 33.5312 11.8646 33.4375 11.7188 33.4375C11.5938 33.4167 11.4479 33.4167 11.2812 33.4375C11.0312 33.4583 10.7917 33.4792 10.5625 33.5C10.3542 33.5 10.1354 33.5 9.90625 33.5C9.78125 33.3958 9.63542 33.3542 9.46875 33.375C9.32292 33.3958 9.16667 33.4167 9 33.4375C8.85417 33.4583 8.69792 33.4688 8.53125 33.4688C8.38542 33.4479 8.23958 33.3542 8.09375 33.1875C7.94792 33.25 7.71875 33.5 7.40625 33.9375C7.09375 34.3542 6.76042 34.8229 6.40625 35.3438C6.07292 35.8646 5.75 36.375 5.4375 36.875C5.14583 37.3542 4.94792 37.6875 4.84375 37.875C4.76042 38 4.65625 38.1562 4.53125 38.3438C4.42708 38.5312 4.3125 38.7292 4.1875 38.9375C4.0625 39.125 3.94792 39.3125 3.84375 39.5C3.73958 39.6667 3.65625 39.8125 3.59375 39.9375L3.625 40.0312C3.625 40.2396 3.59375 40.4062 3.53125 40.5312C3.46875 40.6354 3.38542 40.7292 3.28125 40.8125C3.19792 40.875 3.11458 40.9375 3.03125 41C2.94792 41.0417 2.875 41.0938 2.8125 41.1562C2.64583 41.1562 2.52083 41.1979 2.4375 41.2812C2.35417 41.3646 2.28125 41.4583 2.21875 41.5625C2.15625 41.6667 2.08333 41.7604 2 41.8438C1.89583 41.9271 1.73958 41.9688 1.53125 41.9688C1.44792 42.0729 1.39583 42.1458 1.375 42.1875C1.35417 42.2292 1.32292 42.3125 1.28125 42.4375C1.23958 42.5833 1.20833 42.6875 1.1875 42.75C1.14583 42.8125 1.11458 42.8542 1.09375 42.875C1.05208 42.9167 1.01042 42.9479 0.96875 42.9688C0.927083 43.0104 0.885417 43.0625 0.84375 43.125C0.71875 43.1458 0.625 43.125 0.5625 43.0625C0.5 43 0.4375 42.9167 0.375 42.8125C0.3125 42.7292 0.260417 42.6354 0.21875 42.5312C0.15625 42.4479 0.0833333 42.3854 0 42.3438L0.03125 42.25C0.447917 41.0208 0.947917 39.8542 1.53125 38.75C2.11458 37.625 2.73958 36.5104 3.40625 35.4062C3.44792 35.3229 3.47917 35.2396 3.5 35.1562C3.52083 35.0729 3.55208 34.9896 3.59375 34.9062C3.69792 34.6354 3.80208 34.375 3.90625 34.125C4.03125 33.875 4.17708 33.6354 4.34375 33.4062C4.48958 33.1771 4.61458 32.9583 4.71875 32.75C4.84375 32.5417 4.95833 32.3229 5.0625 32.0938L5 32.0312C4.33333 31.4896 3.75 30.9375 3.25 30.375C2.77083 29.7917 2.3125 29.1354 1.875 28.4062C1.77083 28.2188 1.66667 28.0312 1.5625 27.8438C1.45833 27.6354 1.35417 27.4479 1.25 27.2812L1.21875 27.25C1.21875 26.8333 1.25 26.4167 1.3125 26C1.375 25.5833 1.5625 25.2188 1.875 24.9062L1.90625 24.875V24.8438C2.01042 24.6354 2.125 24.4792 2.25 24.375C2.375 24.2708 2.5 24.1875 2.625 24.125C2.77083 24.0625 2.91667 24.0104 3.0625 23.9688C3.20833 23.9062 3.35417 23.8125 3.5 23.6875V23.6562C3.97917 23.4479 4.44792 23.2708 4.90625 23.125C5.36458 22.9792 5.85417 23.0417 6.375 23.3125L6.4375 23.2812C6.625 23.1771 6.85417 23.125 7.125 23.125C7.39583 23.1042 7.63542 23.0938 7.84375 23.0938C7.96875 23.1562 8.09375 23.2396 8.21875 23.3438C8.36458 23.4271 8.5 23.5104 8.625 23.5938C8.77083 23.6771 8.91667 23.7396 9.0625 23.7812C9.20833 23.8229 9.34375 23.8125 9.46875 23.75H9.5V23.7188C9.70833 23.5104 9.875 23.2188 10 22.8438C10.125 22.4479 10.25 22.0312 10.375 21.5938C10.5208 21.1562 10.6771 20.7292 10.8438 20.3125C11.0104 19.875 11.2396 19.5 11.5312 19.1875C11.5312 19.125 11.5729 18.9896 11.6562 18.7812C11.7396 18.5521 11.8229 18.3021 11.9062 18.0312C12.0104 17.7396 12.0833 17.4583 12.125 17.1875C12.1875 16.8958 12.1875 16.6562 12.125 16.4688L12.4062 16.5C12.4896 16.4167 12.5417 16.3438 12.5625 16.2812L12.5312 16.1875C12.4479 16.1042 12.4167 16 12.4375 15.875C12.4583 15.75 12.4896 15.6354 12.5312 15.5312H12.5L12.4688 15.4062C12.5312 15.3854 12.6458 15.3438 12.8125 15.2812C13 15.2188 13.1875 15.1458 13.375 15.0625C13.5625 14.9792 13.7292 14.9062 13.875 14.8438C14.0417 14.7812 14.1354 14.75 14.1562 14.75C14.4479 14.9167 14.6042 15.1042 14.625 15.3125C14.6667 15.5208 14.6562 15.7708 14.5938 16.0625C14.5729 16.2083 14.5625 16.3333 14.5625 16.4375C14.5833 16.5208 14.5938 16.625 14.5938 16.75C14.5938 16.9583 14.5417 17.2188 14.4375 17.5312C14.3333 17.8229 14.2083 18.1354 14.0625 18.4688C13.9375 18.8021 13.7917 19.1146 13.625 19.4062C13.4583 19.6979 13.3125 19.9375 13.1875 20.125V20.3125C13.1875 20.75 13.125 21.2083 13 21.6875C12.875 22.1458 12.7188 22.6042 12.5312 23.0625C12.3438 23.5208 12.1354 23.9688 11.9062 24.4062C11.6979 24.8438 11.4896 25.2604 11.2812 25.6562C11.1354 25.9062 10.9792 26.1979 10.8125 26.5312C10.6458 26.8438 10.4792 27.1667 10.3125 27.5C10.1667 27.8333 10.0312 28.1771 9.90625 28.5312C9.80208 28.8646 9.72917 29.1667 9.6875 29.4375V29.4688L8.90625 30.9375C8.98958 31.0417 9.11458 31.1354 9.28125 31.2188C9.46875 31.2812 9.65625 31.3438 9.84375 31.4062C10.0521 31.4688 10.25 31.5208 10.4375 31.5625C10.6458 31.5833 10.8229 31.5938 10.9688 31.5938C11.1979 31.5938 11.3854 31.6146 11.5312 31.6562C11.6979 31.6771 11.8646 31.7812 12.0312 31.9688L12.0938 32.0312H12.1562C12.3229 31.9896 12.4688 31.9688 12.5938 31.9688C12.7188 31.9688 12.8646 31.9688 13.0312 31.9688C13.1979 32.0104 13.3542 32.0208 13.5 32C13.6667 31.9792 13.8333 31.9583 14 31.9375L13.9688 32.1562C14.0729 32.2604 14.1562 32.3333 14.2188 32.375C14.3229 32.2083 14.4479 32.0417 14.5938 31.875C14.6771 32 14.75 32.0938 14.8125 32.1562C14.875 32.1146 14.9479 32.0312 15.0312 31.9062C15.1354 31.7812 15.2083 31.7188 15.25 31.7188L15.2812 31.6875L15.3125 31.7188C15.6875 31.8438 16.0312 31.8854 16.3438 31.8438C16.6562 31.8021 17 31.7812 17.375 31.7812C17.4375 31.6354 17.5208 31.5208 17.625 31.4375C17.75 31.3542 17.8542 31.2708 17.9375 31.1875C18.0417 31.0833 18.1042 30.9792 18.125 30.875C18.1458 30.7708 18.0938 30.625 17.9688 30.4375L17.9375 30.375C17.9375 30.375 17.9688 30.3125 18.0312 30.1875C18.1146 30.0625 18.1979 29.9271 18.2812 29.7812C18.3646 29.6146 18.4375 29.4688 18.5 29.3438C18.5833 29.2188 18.6354 29.1354 18.6562 29.0938C19.0729 28.4062 19.4375 27.7083 19.75 27C20.0625 26.2708 20.2188 25.5 20.2188 24.6875V24.4688C20.2604 24.4479 20.3021 24.4375 20.3438 24.4375C20.6562 24.3125 20.8229 24.1458 20.8438 23.9375C20.8646 23.7083 20.8542 23.4688 20.8125 23.2188C20.7708 22.9688 20.7708 22.7188 20.8125 22.4688C20.875 22.2188 21.0938 22 21.4688 21.8125L21.5312 21.7812L21.5625 21.7188C21.6875 21.4062 21.7917 21.0938 21.875 20.7812C21.9792 20.4479 22.0938 20.125 22.2188 19.8125C22.6146 18.875 22.9062 17.8646 23.0938 16.7812C23.1354 16.5312 23.2292 16.3125 23.375 16.125C23.5417 15.9167 23.7083 15.7188 23.875 15.5312C24.0417 15.3229 24.1875 15.1146 24.3125 14.9062C24.4583 14.6771 24.5312 14.4271 24.5312 14.1562C24.5312 13.9896 24.5104 13.875 24.4688 13.8125V13.7188L24.5312 13.6875C24.9479 13.4792 25.2708 13.2188 25.5 12.9062C25.7292 12.5938 25.8438 12.1979 25.8438 11.7188C25.8438 11.6562 25.8333 11.5417 25.8125 11.375C25.8125 11.2083 25.7917 11.1042 25.75 11.0625C25.9375 10.9375 26.1354 10.7708 26.3438 10.5625L26.4062 10.5938C26.8021 10.8854 27.0417 11.1875 27.125 11.5C27.2292 11.7917 27.25 12.0938 27.1875 12.4062C27.1458 12.7188 27.0729 13.0417 26.9688 13.375C26.8646 13.7083 26.8125 14.0521 26.8125 14.4062L26.7812 14.4375C26.4688 14.9792 26.2188 15.5938 26.0312 16.2812C25.8438 16.9688 25.75 17.6354 25.75 18.2812C25.5208 18.2812 25.375 18.3333 25.3125 18.4375C25.2708 18.5417 25.2292 18.6771 25.1875 18.8438C25.1667 18.9896 25.125 19.1458 25.0625 19.3125C25.0208 19.4792 24.8958 19.625 24.6875 19.75L24.75 19.8438C24.75 19.8854 24.75 19.9167 24.75 19.9375C24.7708 19.9583 24.7812 19.9896 24.7812 20.0312C24.7812 20.1562 24.75 20.2708 24.6875 20.375C24.625 20.4583 24.5625 20.5521 24.5 20.6562C24.4375 20.7396 24.3958 20.8333 24.375 20.9375C24.375 21.0417 24.4271 21.1562 24.5312 21.2812C24.6146 21.4062 24.6667 21.4792 24.6875 21.5H24.3438C24.0104 22.1458 23.7083 22.8021 23.4375 23.4688C23.1667 24.1354 22.9167 24.8125 22.6875 25.5C22.5 26.0833 22.3021 26.6562 22.0938 27.2188C21.8854 27.7812 21.6354 28.3333 21.3438 28.875V28.9688C21.5312 29.3229 21.5417 29.6042 21.375 29.8125C21.2292 30.0208 21.0625 30.2083 20.875 30.375C20.7083 30.5208 20.5938 30.6667 20.5312 30.8125C20.4688 30.9583 20.6146 31.1458 20.9688 31.375C21.2396 31.1042 21.4896 31.0104 21.7188 31.0938C21.9479 31.1771 22.2292 31.2604 22.5625 31.3438C22.625 31.2812 22.6771 31.2292 22.7188 31.1875C22.7812 31.125 22.875 31.1146 23 31.1562C23.0208 31.1771 23.0417 31.1979 23.0625 31.2188C23.0833 31.2188 23.1042 31.2292 23.125 31.25C23.25 31.0625 23.3646 30.9583 23.4688 30.9375C23.5729 30.9167 23.6771 30.9271 23.7812 30.9688C23.8854 31.0104 23.9896 31.0521 24.0938 31.0938C24.1979 31.1354 24.3021 31.125 24.4062 31.0625C24.4688 31.0208 24.5104 30.9583 24.5312 30.875C24.5521 30.7708 24.5833 30.6771 24.625 30.5938C24.9375 30.9062 25.1979 31.0625 25.4062 31.0625C25.6354 31.0417 25.8438 30.9792 26.0312 30.875C26.2396 30.75 26.4375 30.6354 26.625 30.5312C26.8333 30.4271 27.0729 30.4375 27.3438 30.5625C27.5729 30.5625 27.8021 30.5417 28.0312 30.5C28.2812 30.4375 28.5208 30.3854 28.75 30.3438C29.3542 30.2396 29.9479 30.1562 30.5312 30.0938C31.1146 30.0312 31.7083 30.0521 32.3125 30.1562L32.3438 30.4062ZM8.3125 24.4062C8.125 24.4062 7.94792 24.4167 7.78125 24.4375C7.63542 24.4583 7.5 24.5312 7.375 24.6562C7.35417 24.6354 7.33333 24.625 7.3125 24.625C6.5 24.3958 5.71875 24.4375 4.96875 24.75C4.21875 25.0625 3.57292 25.5104 3.03125 26.0938L2.96875 26.3438C2.94792 26.4062 2.9375 26.4792 2.9375 26.5625C2.9375 26.625 2.9375 26.6771 2.9375 26.7188C2.9375 27.1146 3.03125 27.4792 3.21875 27.8125C3.34375 28.0625 3.48958 28.2708 3.65625 28.4375C3.84375 28.6042 4.04167 28.7604 4.25 28.9062C4.47917 29.0521 4.69792 29.1979 4.90625 29.3438C5.13542 29.4896 5.34375 29.6667 5.53125 29.875C5.94792 29.875 6.22917 29.7708 6.375 29.5625C6.54167 29.3333 6.65625 29.0729 6.71875 28.7812C6.80208 28.4688 6.88542 28.1562 6.96875 27.8438C7.05208 27.5312 7.22917 27.2812 7.5 27.0938C7.52083 27.0938 7.53125 27.0938 7.53125 27.0938C7.53125 27.0729 7.54167 27.0625 7.5625 27.0625C7.47917 26.8542 7.47917 26.6458 7.5625 26.4375C7.66667 26.2292 7.78125 26.0208 7.90625 25.8125C8.05208 25.6042 8.16667 25.3854 8.25 25.1562C8.35417 24.9271 8.375 24.6771 8.3125 24.4062ZM48.9062 38.7188C48.6146 39.2188 48.3854 39.625 48.2188 39.9375C48.0729 40.2292 47.9167 40.4792 47.75 40.6875C47.6042 40.875 47.4271 41.0521 47.2188 41.2188C47.0312 41.3646 46.7604 41.5521 46.4062 41.7812C46.1771 41.9896 45.9479 42.1667 45.7188 42.3125C45.5312 42.4583 45.3438 42.5833 45.1562 42.6875C44.9896 42.7917 44.8542 42.8438 44.75 42.8438C44.7083 42.8438 44.6667 42.8333 44.625 42.8125C44.5833 42.8125 44.5417 42.8125 44.5 42.8125C44.375 42.8125 44.25 42.8125 44.125 42.8125C44.0208 42.8333 43.9271 42.7604 43.8438 42.5938C43.7812 42.6562 43.7292 42.7292 43.6875 42.8125C43.6458 42.8958 43.6042 42.9688 43.5625 43.0312C43.5208 43.1146 43.4583 43.1771 43.375 43.2188C43.3125 43.2604 43.2188 43.2604 43.0938 43.2188L42.9375 43.0312L42.4688 43.4375C41.8854 43.1458 41.3229 42.8958 40.7812 42.6875C40.2604 42.5 39.7917 42.2708 39.375 42C38.9583 41.7292 38.6042 41.3854 38.3125 40.9688C38.0208 40.5312 37.8125 39.9375 37.6875 39.1875C37.5833 39.0625 37.4688 38.9583 37.3438 38.875C37.2188 38.7708 37.0729 38.7396 36.9062 38.7812C36.6979 39.1354 36.4479 39.4375 36.1562 39.6875C35.8646 39.9375 35.5729 40.2083 35.2812 40.5C35.1771 40.6042 35.0938 40.7188 35.0312 40.8438C34.9688 40.9688 34.8854 41.0833 34.7812 41.1875C34.6146 41.375 34.4167 41.5104 34.1875 41.5938C33.9583 41.6562 33.7292 41.7188 33.5 41.7812C33.2708 41.8438 33.0521 41.9479 32.8438 42.0938C32.6562 42.2396 32.5208 42.4896 32.4375 42.8438C32.1875 42.6979 31.9375 42.6562 31.6875 42.7188C31.5 42.7604 31.3021 42.8021 31.0938 42.8438C30.8854 42.9062 30.6771 42.9375 30.4688 42.9375C30.2812 42.9583 30.0938 42.9375 29.9062 42.875C29.7188 42.8125 29.5521 42.6771 29.4062 42.4688C29.1146 42.5938 28.8438 42.5833 28.5938 42.4375C28.3438 42.3125 28.1042 42.1354 27.875 41.9062C27.6667 41.6562 27.4583 41.3958 27.25 41.125C27.0417 40.8542 26.8438 40.6562 26.6562 40.5312C26.5312 40.1979 26.5417 39.9167 26.6875 39.6875C26.8125 39.4375 26.9583 39.2083 27.125 39C27.2708 38.7708 27.375 38.5521 27.4375 38.3438C27.5 38.1146 27.4062 37.8438 27.1562 37.5312C27.3646 37.2188 27.5521 36.8958 27.7188 36.5625C27.8854 36.2083 28.0521 35.8646 28.2188 35.5312C28.4062 35.1771 28.5938 34.8438 28.7812 34.5312C28.9896 34.1979 29.2396 33.9167 29.5312 33.6875C29.4062 33.5417 29.3438 33.4062 29.3438 33.2812C29.3438 33.1354 29.375 33 29.4375 32.875C29.5 32.7292 29.5729 32.5938 29.6562 32.4688C29.7396 32.3229 29.8021 32.1875 29.8438 32.0625L30.75 31.625L30.5312 30.875C30.7604 30.9167 30.9271 30.9062 31.0312 30.8438C31.1562 30.7812 31.2396 30.6875 31.2812 30.5625C31.3438 30.4375 31.3854 30.3021 31.4062 30.1562C31.4479 29.9896 31.5 29.8438 31.5625 29.7188C31.6667 29.5312 31.8229 29.3958 32.0312 29.3125C32.4688 28.9792 32.8958 28.625 33.3125 28.25C33.75 27.875 34.1771 27.5104 34.5938 27.1562C35.0312 26.8021 35.4792 26.4688 35.9375 26.1562C36.3958 25.8229 36.8958 25.5417 37.4375 25.3125C37.8125 25.375 38.1042 25.4896 38.3125 25.6562C38.5417 25.8229 38.7083 26.0208 38.8125 26.25C38.9375 26.4792 39.0312 26.7396 39.0938 27.0312C39.1562 27.3021 39.2188 27.5729 39.2812 27.8438C39.3854 28.1979 39.5104 28.5 39.6562 28.75C39.8021 29 40.0521 29.2083 40.4062 29.375C40.1146 29.875 40 30.375 40.0625 30.875C40.125 31.3542 40.1875 31.8646 40.25 32.4062C40.3125 32.9062 40.3021 33.3958 40.2188 33.875C40.1562 34.3542 39.8542 34.7812 39.3125 35.1562C39.2708 35.3021 39.2604 35.4583 39.2812 35.625C39.3021 35.7917 39.3125 35.9583 39.3125 36.125C39.3125 36.2917 39.2812 36.4479 39.2188 36.5938C39.1562 36.7396 39.0417 36.8542 38.875 36.9375C39.0625 37.1667 39.1562 37.3958 39.1562 37.625C39.1771 37.8542 39.1875 38.0729 39.1875 38.2812C39.2083 38.4896 39.2604 38.6771 39.3438 38.8438C39.4479 39.0104 39.6771 39.1354 40.0312 39.2188C40.0938 39.4896 40.1458 39.6979 40.1875 39.8438C40.25 39.9688 40.3125 40.0729 40.375 40.1562C40.4583 40.2396 40.5625 40.3229 40.6875 40.4062C40.8125 40.4688 40.9792 40.5729 41.1875 40.7188C41.3542 40.7604 41.5417 40.7604 41.75 40.7188C41.9583 40.6771 42.125 40.7396 42.25 40.9062C42.3542 40.8021 42.4792 40.75 42.625 40.75C42.7708 40.7292 42.9062 40.7292 43.0312 40.75L43.4375 41.4375C43.6667 41.2708 43.9271 41.125 44.2188 41C44.5104 40.875 44.7917 40.7708 45.0625 40.6875C45.375 40.6042 45.6875 40.5312 46 40.4688L48.9062 38.7188ZM36.9062 28.0312C36.7188 28.1979 36.4896 28.3646 36.2188 28.5312C35.9479 28.6979 35.6771 28.875 35.4062 29.0625C35.1562 29.25 34.9375 29.4583 34.75 29.6875C34.5625 29.8958 34.4479 30.1458 34.4062 30.4375C33.9271 30.5208 33.5938 30.7188 33.4062 31.0312C33.2188 31.3438 33.0625 31.6875 32.9375 32.0625C32.8125 32.4375 32.6771 32.8125 32.5312 33.1875C32.3854 33.5417 32.125 33.8229 31.75 34.0312C31.625 34.1146 31.5104 34.1562 31.4062 34.1562C31.4271 34.1562 31.3646 34.1979 31.2188 34.2812C30.9896 34.4479 30.7917 34.6562 30.625 34.9062C30.4583 35.1562 30.3125 35.4271 30.1875 35.7188C30.0833 36.0104 29.9792 36.3125 29.875 36.625C29.7917 36.9167 29.7083 37.1875 29.625 37.4375C29.3333 37.4792 29.1146 37.5417 28.9688 37.625C28.8229 37.7083 28.7292 37.8021 28.6875 37.9062C28.6667 37.9896 28.6771 38.0938 28.7188 38.2188C28.7604 38.3438 28.8229 38.4792 28.9062 38.625C28.9896 38.75 29.0729 38.8958 29.1562 39.0625C29.2604 39.2292 29.3438 39.3958 29.4062 39.5625C29.4688 39.7292 29.5 39.8958 29.5 40.0625C29.5208 40.2292 29.4792 40.3854 29.375 40.5312C29.6667 40.7604 29.9479 40.8125 30.2188 40.6875C30.4896 40.5417 30.7396 40.3854 30.9688 40.2188C31.0521 40.1562 31.1354 40.0938 31.2188 40.0312C31.3229 39.9479 31.4271 39.8854 31.5312 39.8438C32.0104 39.9479 32.4479 39.9167 32.8438 39.75C33.2396 39.5833 33.6042 39.3542 33.9375 39.0625C34.2708 38.7708 34.5938 38.4583 34.9062 38.125C35.2188 37.7917 35.5312 37.5 35.8438 37.25L35.5938 37C35.9688 36.8958 36.2292 36.7604 36.375 36.5938C36.5417 36.4062 36.6458 36.1979 36.6875 35.9688C36.7292 35.7396 36.7292 35.5 36.6875 35.25C36.6458 34.9792 36.6146 34.6979 36.5938 34.4062C36.5729 34.2396 36.5625 34.0833 36.5625 33.9375C36.5833 33.7708 36.625 33.6042 36.6875 33.4375C36.5208 32.9583 36.4896 32.5 36.5938 32.0625C36.7188 31.625 36.875 31.2083 37.0625 30.8125C37.2708 30.3958 37.4688 29.9792 37.6562 29.5625C37.8438 29.1458 37.9375 28.7083 37.9375 28.25L36.9062 28.0312ZM69.3438 34.1875C69.2396 34.8333 69.1146 35.3333 68.9688 35.6875C68.8229 36.0208 68.6354 36.3021 68.4062 36.5312C68.1979 36.7396 67.9271 36.9479 67.5938 37.1562C67.2604 37.3438 66.8646 37.625 66.4062 38C66.2396 38.125 66.0833 38.2396 65.9375 38.3438C65.7917 38.4479 65.6458 38.5729 65.5 38.7188C65.0833 38.8438 64.5729 39.0521 63.9688 39.3438C63.3646 39.6146 62.7396 39.8958 62.0938 40.1875C61.4688 40.4583 60.8646 40.6979 60.2812 40.9062C59.7188 41.1146 59.2604 41.1979 58.9062 41.1562C58.7812 41.3229 58.5625 41.4271 58.25 41.4688C57.9375 41.5104 57.6979 41.5312 57.5312 41.5312C57.2604 41.5312 56.9792 41.5521 56.6875 41.5938C56.4167 41.6354 56.1771 41.7604 55.9688 41.9688C55.9271 42.0104 55.8958 42.0312 55.875 42.0312C55.875 42.0521 55.875 42.0625 55.875 42.0625C55.8958 42.0625 55.8958 42.0625 55.875 42.0625C55.875 42.0833 55.8542 42.125 55.8125 42.1875C55.5833 42.4583 55.3438 42.6042 55.0938 42.625C54.8646 42.6458 54.6354 42.6042 54.4062 42.5C54.1771 42.4167 53.9375 42.3021 53.6875 42.1562C53.4583 42.0104 53.2188 41.9062 52.9688 41.8438C52.7396 41.7604 52.5 41.75 52.25 41.8125C52 41.8542 51.75 42.0208 51.5 42.3125C51.3542 41.9375 51.125 41.7188 50.8125 41.6562C50.5 41.5938 50.1771 41.5625 49.8438 41.5625C49.5312 41.5417 49.2292 41.5104 48.9375 41.4688C48.6458 41.4062 48.4479 41.2083 48.3438 40.875V40.8438L47.6875 40.2812L47.5938 40.375C47.4896 40.4792 47.4062 40.5938 47.3438 40.7188C47.2812 40.8438 47.2083 40.9583 47.125 41.0625C46.9583 41.3125 46.7812 41.5625 46.5938 41.8125C46.4062 42.0417 46.1979 42.2396 45.9688 42.4062C45.7188 42.5938 45.4583 42.7292 45.1875 42.8125C44.9167 42.9167 44.625 42.9479 44.3125 42.9062C44.3125 42.4062 44.4583 41.9479 44.75 41.5312C45.0208 41.1146 45.2917 40.7083 45.5625 40.3125C45.8125 39.8958 45.9792 39.4792 46.0625 39.0625C46.125 38.625 45.9479 38.1667 45.5312 37.6875C45.5104 37.3958 45.3854 37.1146 45.1562 36.8438C44.9062 36.5521 44.6771 36.2708 44.4688 36C44.2604 35.7083 44.1458 35.4271 44.125 35.1562C44.0833 34.8854 44.2604 34.6146 44.6562 34.3438C44.4688 34.3021 44.3438 34.2292 44.2812 34.125C44.2812 34.0208 44.3125 33.9167 44.375 33.8125C44.4167 33.6875 44.4583 33.5729 44.5 33.4688C44.625 33.4688 44.7604 33.4479 44.9062 33.4062C45.0312 33.3438 45.1562 33.3021 45.2812 33.2812C45.3854 33.2396 45.4896 33.2396 45.5938 33.2812C45.6771 33.3021 45.7604 33.3958 45.8438 33.5625C45.9062 33.6875 45.9583 33.8229 46 33.9688C46.0417 34.1146 46.0938 34.2604 46.1562 34.4062C46.3229 34.8229 46.5312 35.2188 46.7812 35.5938C47.0312 35.9479 47.3125 36.2812 47.625 36.5938L47.7188 36.6875C47.7188 36.6667 47.7604 36.6146 47.8438 36.5312C47.9271 36.4479 48.0208 36.3646 48.125 36.2812C48.2292 36.1771 48.3229 36.0833 48.4062 36C48.4896 35.9167 48.5521 35.8542 48.5938 35.8125C48.8438 35.5833 49.0833 35.3646 49.3125 35.1562C49.5417 34.9479 49.7396 34.7396 49.9062 34.5312C50.0938 34.3021 50.2292 34.0521 50.3125 33.7812C50.4167 33.4896 50.4688 33.1562 50.4688 32.7812C51.1146 32.3438 51.75 31.8646 52.375 31.3438C53 30.8021 53.6354 30.2812 54.2812 29.7812C54.9271 29.2812 55.5938 28.8333 56.2812 28.4375C56.9896 28.0417 57.75 27.7708 58.5625 27.625C58.75 27.9583 58.9688 28.2188 59.2188 28.4062C59.4688 28.5938 59.7083 28.7812 59.9375 28.9688C60.1875 29.1562 60.4062 29.3854 60.5938 29.6562C60.8021 29.9271 60.9479 30.3021 61.0312 30.7812C61.1979 31.6771 61.1979 32.5208 61.0312 33.3125C60.8854 34.1042 60.6667 34.9271 60.375 35.7812C60.2083 36.2812 60.0521 36.7917 59.9062 37.3125C59.7812 37.8333 59.7188 38.3646 59.7188 38.9062L59.9375 38.9688C60.125 38.7188 60.3333 38.5625 60.5625 38.5C60.8125 38.4375 61.0625 38.3958 61.3125 38.375C61.5625 38.3542 61.8021 38.3229 62.0312 38.2812C62.2812 38.2188 62.4896 38.0625 62.6562 37.8125C62.9271 37.9167 63.1771 37.9271 63.4062 37.8438C63.6562 37.7396 63.8958 37.6042 64.125 37.4375C64.3542 37.2708 64.5833 37.0938 64.8125 36.9062C65.0417 36.7188 65.2812 36.5938 65.5312 36.5312L65.5 36.2812C65.875 36.0312 66.1979 35.8542 66.4688 35.75C66.7396 35.6458 66.9896 35.5417 67.2188 35.4375C67.4479 35.3333 67.6771 35.1875 67.9062 35C68.1354 34.8125 68.3958 34.5 68.6875 34.0625C68.7917 34.0208 68.9062 34.0104 69.0312 34.0312C69.1771 34.0312 69.2812 34.0833 69.3438 34.1875ZM58.4375 31.0938C58.3333 31.0521 58.2188 31.0208 58.0938 31C57.9896 30.9583 57.8854 30.9062 57.7812 30.8438C57.5938 30.7188 57.4167 30.625 57.25 30.5625C57.0833 30.5 56.8854 30.5208 56.6562 30.625V30.6875H56.625C55.5625 31.5 54.5729 32.3958 53.6562 33.375C52.7604 34.3333 51.8125 35.2708 50.8125 36.1875L50.5312 35.9062C50.3854 36.0938 50.3021 36.2917 50.2812 36.5C50.2812 36.7083 50.2812 36.9062 50.2812 37.0938C50.2812 37.2812 50.2604 37.4583 50.2188 37.625C50.1771 37.7917 50.0521 37.9479 49.8438 38.0938L49.75 38.1562C49.8333 38.4479 49.9479 38.6354 50.0938 38.7188C50.2604 38.7812 50.4271 38.8125 50.5938 38.8125C50.7812 38.7917 50.9583 38.7708 51.125 38.75C51.2917 38.7292 51.4271 38.7604 51.5312 38.8438C51.5938 38.8854 51.6354 38.9479 51.6562 39.0312C51.6771 39.1146 51.6875 39.1875 51.6875 39.25C51.7917 39.25 51.8958 39.25 52 39.25C52.125 39.25 52.25 39.2396 52.375 39.2188C52.6042 39.1771 52.8438 39.1771 53.0938 39.2188C53.3646 39.2396 53.5208 39.3958 53.5625 39.6875C53.9792 39.5208 54.4062 39.3438 54.8438 39.1562C55.2812 38.9688 55.6354 38.6667 55.9062 38.25L56.125 38.4688C56.1458 38.4688 56.1562 38.4688 56.1562 38.4688C56.1771 38.4479 56.1979 38.4375 56.2188 38.4375C56.7396 38.125 57.1458 37.6667 57.4375 37.0625C57.75 36.4583 57.9792 35.8021 58.125 35.0938C58.2708 34.3854 58.3542 33.6771 58.375 32.9688C58.4167 32.2604 58.4375 31.6354 58.4375 31.0938ZM89.625 32.4375C89.4375 32.625 89.2917 32.7708 89.1875 32.875C89.1042 32.9792 89.0208 33.0833 88.9375 33.1875C88.875 33.2708 88.7917 33.3646 88.6875 33.4688C88.6042 33.5729 88.4688 33.7292 88.2812 33.9375C88.1146 34.1042 87.9583 34.2812 87.8125 34.4688C87.6667 34.6562 87.5 34.8229 87.3125 34.9688C87.0625 34.9062 86.8646 34.9375 86.7188 35.0625C86.5938 35.1875 86.4688 35.3333 86.3438 35.5C86.2396 35.6458 86.1354 35.7917 86.0312 35.9375C85.9479 36.0625 85.8333 36.1146 85.6875 36.0938C85.1875 36.3646 84.6875 36.6042 84.1875 36.8125C83.6875 37 83.2083 37.2812 82.75 37.6562L82.5 37.4062L79.25 38.9688C79.1458 39.0104 79.0417 39.0729 78.9375 39.1562C78.8333 39.2396 78.7292 39.3125 78.625 39.375C78.1667 39.625 77.6875 39.8542 77.1875 40.0625C76.7083 40.25 76.2292 40.4271 75.75 40.5938L75.3438 40.7188C75.5104 41.1354 75.5104 41.4271 75.3438 41.5938C75.1771 41.7604 74.9375 41.8854 74.625 41.9688C74.3125 42.0312 73.9688 42.0729 73.5938 42.0938C73.2188 42.1146 72.9271 42.1875 72.7188 42.3125C72.4688 42.2708 72.2083 42.25 71.9375 42.25C71.6875 42.2708 71.4271 42.3021 71.1562 42.3438C70.8646 42.3854 70.5938 42.4062 70.3438 42.4062C70.0938 42.4062 69.8229 42.375 69.5312 42.3125H69.4688C69.1146 42.4792 68.8021 42.5104 68.5312 42.4062C68.2812 42.3229 68.0521 42.1771 67.8438 41.9688C67.6354 41.7396 67.4375 41.4792 67.25 41.1875C67.0833 40.875 66.9062 40.5938 66.7188 40.3438C66.5938 40.1771 66.4375 39.9375 66.25 39.625C66.0625 39.3125 65.9062 38.9792 65.7812 38.625C65.6354 38.2708 65.5521 37.9167 65.5312 37.5625C65.4896 37.1875 65.5625 36.8646 65.75 36.5938C65.9375 36.3229 66.0938 36.0312 66.2188 35.7188C66.3229 35.4062 66.375 35.0417 66.375 34.625C66.375 34.4792 66.375 34.3438 66.375 34.2188C66.3542 34.0938 66.3438 33.9583 66.3438 33.8125C66.4479 33.8125 66.5625 33.8229 66.6875 33.8438C66.8125 33.8438 66.9271 33.8438 67.0312 33.8438C67.1562 33.8229 67.25 33.7812 67.3125 33.7188C67.3958 33.6354 67.4375 33.5 67.4375 33.3125C67.4375 33.2083 67.3958 33.125 67.3125 33.0625C67.25 33 67.2083 32.9375 67.1875 32.875C67.3125 32.6875 67.4271 32.5417 67.5312 32.4375C67.6562 32.3125 67.7604 32.1979 67.8438 32.0938C67.9271 31.9688 67.9896 31.8333 68.0312 31.6875C68.0729 31.5208 68.0625 31.3021 68 31.0312C68.25 30.5938 68.5417 30.2083 68.875 29.875C69.2292 29.5208 69.5938 29.1979 69.9688 28.9062C70.3438 28.5938 70.7292 28.2917 71.125 28C71.5208 27.7083 71.8958 27.3958 72.25 27.0625C72.6458 27.2292 72.9583 27.2292 73.1875 27.0625C73.4375 26.8958 73.6562 26.7188 73.8438 26.5312C74.0312 26.3229 74.2188 26.1562 74.4062 26.0312C74.5938 25.9062 74.8438 25.9583 75.1562 26.1875L75.2188 26.25C75.7812 25.6875 76.3438 25.4375 76.9062 25.5C77.4896 25.5625 77.9792 25.75 78.375 26.0625C78.7917 26.375 79.0625 26.7396 79.1875 27.1562C79.3125 27.5521 79.1979 27.8229 78.8438 27.9688C79.0729 28.1979 79.1875 28.4688 79.1875 28.7812C79.1875 29.0938 79.1042 29.3646 78.9375 29.5938C78.75 29.8438 78.5833 30.1042 78.4375 30.375C78.3125 30.625 78.1771 30.8958 78.0312 31.1875C77.8229 31.6667 77.5938 32.125 77.3438 32.5625C77.0938 32.9792 76.7396 33.3333 76.2812 33.625C75.9062 33.5208 75.6458 33.5625 75.5 33.75C75.375 33.9375 75.2812 34.1458 75.2188 34.375C75.1562 34.5833 75.0833 34.75 75 34.875C74.9167 35 74.7396 34.9583 74.4688 34.75L74.4062 34.6875L74.3438 34.75C74.1771 34.9167 74.0417 35.1042 73.9375 35.3125C73.8542 35.5208 73.7292 35.6771 73.5625 35.7812C73.375 35.7188 73.1771 35.6667 72.9688 35.625C72.7604 35.5833 72.5625 35.5417 72.375 35.5C72.375 35.9375 72.2917 36.2812 72.125 36.5312C71.9583 36.7812 71.7396 36.9896 71.4688 37.1562C71.2188 37.3021 70.9271 37.4271 70.5938 37.5312C70.2604 37.6146 69.9271 37.7292 69.5938 37.875C69.2812 38 68.9792 38.1667 68.6875 38.375C68.4167 38.5625 68.1979 38.8333 68.0312 39.1875C68.2396 39.4167 68.5 39.5521 68.8125 39.5938C69.125 39.6146 69.4479 39.6146 69.7812 39.5938C70.1146 39.5521 70.4375 39.5312 70.75 39.5312C71.0833 39.5312 71.375 39.6146 71.625 39.7812L71.6562 39.8125L71.6875 39.7812C72.1875 39.7188 72.6667 39.6042 73.125 39.4375C73.6042 39.25 74.0625 39.0625 74.5 38.875C74.9583 38.6667 75.4167 38.4792 75.875 38.3125C76.3542 38.125 76.8438 37.9896 77.3438 37.9062C77.4479 38.0729 77.5833 38.1667 77.75 38.1875C77.9375 38.2083 78.1146 38.1979 78.2812 38.1562L78.3125 38.0938C78.3542 37.9479 78.3958 37.8229 78.4375 37.7188C78.4792 37.5938 78.5417 37.4583 78.625 37.3125C78.7708 37.0833 78.9479 36.9062 79.1562 36.7812C79.3646 36.6562 79.5833 36.5625 79.8125 36.5C80.0625 36.4375 80.3229 36.3958 80.5938 36.375C80.8646 36.3542 81.1354 36.3229 81.4062 36.2812H81.4688L81.5 36.1875C81.5833 35.9375 81.6875 35.7708 81.8125 35.6875C81.9583 35.5833 82.1042 35.5104 82.25 35.4688C82.4167 35.4271 82.5833 35.3958 82.75 35.375C82.9375 35.3542 83.1146 35.2917 83.2812 35.1875C83.6562 35.3125 83.9688 35.2708 84.2188 35.0625C84.4688 34.8542 84.7083 34.6354 84.9375 34.4062L85.1875 34.7188L85.2812 34.5938C85.5938 34.3021 85.8229 34.0833 85.9688 33.9375C86.1354 33.7917 86.2917 33.6667 86.4375 33.5625C86.5833 33.4375 86.75 33.3229 86.9375 33.2188C87.1458 33.0938 87.4271 32.9167 87.7812 32.6875C88.0729 32.5 88.3542 32.3125 88.625 32.125C88.9167 31.9375 89.1979 31.7292 89.4688 31.5C89.5729 31.5417 89.625 31.625 89.625 31.75C89.625 31.8542 89.625 31.9583 89.625 32.0625C89.6042 32.1042 89.5833 32.1667 89.5625 32.25C89.5625 32.3333 89.5833 32.3958 89.625 32.4375ZM76.6875 28.5312C76.6667 28.5104 76.6458 28.5 76.625 28.5C76.625 28.5 76.6146 28.4896 76.5938 28.4688C76.1562 28.2396 75.7917 28.1354 75.5 28.1562C75.2083 28.1562 74.9375 28.2396 74.6875 28.4062C74.4583 28.5521 74.2396 28.75 74.0312 29C73.8438 29.2292 73.6354 29.4479 73.4062 29.6562C73.1979 29.8438 72.9479 29.9896 72.6562 30.0938C72.3646 30.1979 72.0104 30.1875 71.5938 30.0625C71.5312 30.3958 71.4688 30.7292 71.4062 31.0625C71.3646 31.375 71.3333 31.6979 71.3125 32.0312C70.9583 32.1562 70.6771 32.3333 70.4688 32.5625C70.2812 32.7917 70.1146 33.0417 69.9688 33.3125C69.8438 33.5833 69.7188 33.875 69.5938 34.1875C69.4896 34.4792 69.3438 34.7604 69.1562 35.0312L69.2812 35.1875C69.3646 35.1458 69.4583 35.1771 69.5625 35.2812C69.6667 35.3854 69.7396 35.4583 69.7812 35.5C70.0104 35.1667 70.3125 34.8854 70.6875 34.6562C71.0833 34.4271 71.4792 34.2188 71.875 34.0312C72.2917 33.8229 72.6875 33.6042 73.0625 33.375C73.4375 33.1458 73.7188 32.8438 73.9062 32.4688C74.5729 32.2812 75.0729 31.9062 75.4062 31.3438C75.7396 30.7812 76.0208 30.1979 76.25 29.5938C76.2917 29.4688 76.3646 29.2917 76.4688 29.0625C76.5938 28.8125 76.6667 28.6354 76.6875 28.5312ZM107.719 33.0625C107.49 33.3542 107.312 33.6771 107.188 34.0312C107.062 34.3854 106.906 34.7188 106.719 35.0312C106.552 35.3438 106.333 35.6042 106.062 35.8125C105.812 36.0208 105.458 36.1146 105 36.0938C104.667 36.2188 104.417 36.4479 104.25 36.7812C104.104 37.0938 103.958 37.4167 103.812 37.75C103.667 38.0625 103.479 38.3229 103.25 38.5312C103.021 38.7188 102.677 38.7396 102.219 38.5938C101.635 38.8438 101.104 39.1771 100.625 39.5938C100.167 39.9896 99.7292 40.4062 99.3125 40.8438C99.1667 40.9896 99 41.1771 98.8125 41.4062C98.625 41.6146 98.4479 41.7708 98.2812 41.875C98.1354 41.9583 97.9896 41.9688 97.8438 41.9062C97.6979 41.8438 97.5625 41.7812 97.4375 41.7188C97.3125 41.6354 97.1875 41.5938 97.0625 41.5938C96.9583 41.5938 96.8646 41.6875 96.7812 41.875C96.9271 42.1667 96.9583 42.3646 96.875 42.4688C96.7917 42.5938 96.6562 42.6875 96.4688 42.75C96.2812 42.8125 96.0833 42.8646 95.875 42.9062C95.6667 42.9479 95.5 43.0208 95.375 43.125C95.125 43.3542 94.9479 43.6354 94.8438 43.9688C94.7396 44.3021 94.6458 44.6354 94.5625 44.9688C94.4792 45.3021 94.3542 45.6146 94.1875 45.9062C94.0417 46.2188 93.7917 46.4583 93.4375 46.625C93.6458 46.7708 93.7292 46.9167 93.6875 47.0625C93.6667 47.2083 93.6146 47.3542 93.5312 47.5C93.4479 47.6667 93.3854 47.8229 93.3438 47.9688C93.3229 48.1146 93.4062 48.2604 93.5938 48.4062C93.2812 48.8021 93 49.2292 92.75 49.6875C92.5208 50.1458 92.2917 50.6042 92.0625 51.0625C91.8333 51.5417 91.5833 52 91.3125 52.4375C91.0625 52.8958 90.7396 53.3021 90.3438 53.6562L90.4375 54.4062C90.125 54.3229 89.9271 54.3333 89.8438 54.4375C89.7812 54.5417 89.75 54.6875 89.75 54.875C89.75 55.0625 89.75 55.25 89.75 55.4375C89.7708 55.6458 89.7083 55.8021 89.5625 55.9062C89.5 55.9896 89.4271 56.0521 89.3438 56.0938C89.2812 56.1354 89.2188 56.1875 89.1562 56.25C88.4896 56.75 88.0312 57.3854 87.7812 58.1562C87.7396 58.2812 87.7083 58.4062 87.6875 58.5312C87.6667 58.6562 87.6354 58.7917 87.5938 58.9375C87.4896 59.2292 87.3229 59.5312 87.0938 59.8438C86.8646 60.1562 86.6146 60.4792 86.3438 60.8125C86.0729 61.1458 85.8125 61.4896 85.5625 61.8438C85.3125 62.2188 85.1146 62.5938 84.9688 62.9688C84.6354 62.9271 84.375 62.9583 84.1875 63.0625C83.9792 63.1875 83.8125 63.3438 83.6875 63.5312C83.5625 63.7396 83.4583 63.9583 83.375 64.1875C83.2917 64.4167 83.1875 64.6146 83.0625 64.7812C82.9167 64.9688 82.7396 65.1042 82.5312 65.1875C82.3021 65.2917 82.0104 65.2917 81.6562 65.1875L80.25 66.4688C80 66.3229 79.7604 66.2917 79.5312 66.375C79.2812 66.4583 79.0417 66.5729 78.8125 66.7188C78.5625 66.8646 78.3229 66.9792 78.0938 67.0625C77.8438 67.1458 77.5833 67.1146 77.3125 66.9688C77.1667 67.1354 77.0417 67.2188 76.9375 67.2188C76.8333 67.2396 76.7083 67.1562 76.5625 66.9688L76.0938 67.4688C75.8438 67.2604 75.5417 67.0625 75.1875 66.875C74.8125 66.7083 74.4688 66.5104 74.1562 66.2812C73.8438 66.0729 73.5938 65.8229 73.4062 65.5312C73.2188 65.2604 73.1875 64.9062 73.3125 64.4688C73.2708 64.3438 73.2083 64.2083 73.125 64.0625C73.0208 63.9167 72.9375 63.7604 72.875 63.5938C72.8125 63.4479 72.7708 63.2917 72.75 63.125C72.7292 62.9792 72.7708 62.8438 72.875 62.7188C72.6875 62.3646 72.625 62 72.6875 61.625C72.7292 61.2708 72.8021 60.9167 72.9062 60.5625C73.0104 60.2083 73.0938 59.8542 73.1562 59.5C73.2188 59.1458 73.1562 58.7917 72.9688 58.4375C73.2188 58.25 73.4062 58.0104 73.5312 57.7188C73.6354 57.4271 73.7396 57.125 73.8438 56.8125C73.9271 56.5 74.0208 56.1979 74.125 55.9062C74.2292 55.6146 74.4062 55.375 74.6562 55.1875L74.625 54.6875C75.6042 53.6458 76.6458 52.6875 77.75 51.8125C78.8333 50.9583 80.0625 50.3229 81.4375 49.9062C81.7083 49.4271 82.0625 49.0729 82.5 48.8438C82.9375 48.6354 83.3854 48.4375 83.8438 48.25C84.2812 48.0833 84.6875 47.8646 85.0625 47.5938C85.4375 47.3438 85.7188 46.9375 85.9062 46.375C86.0104 46.6042 86.1146 46.6979 86.2188 46.6562C86.3229 46.6354 86.4271 46.5833 86.5312 46.5C86.6562 46.4375 86.7708 46.3854 86.875 46.3438C86.9792 46.3229 87.0833 46.4167 87.1875 46.625C87.3958 46 87.7292 45.5 88.1875 45.125C88.6667 44.75 89.1875 44.4167 89.75 44.125C90.3333 43.8542 90.9167 43.5833 91.5 43.3125C92.0833 43.0625 92.5938 42.75 93.0312 42.375C93.4896 42 93.8333 41.5417 94.0625 41C94.2917 40.4375 94.3438 39.7188 94.2188 38.8438C94.4062 38.7188 94.5312 38.5625 94.5938 38.375C94.6562 38.1667 94.6979 37.9583 94.7188 37.75C94.7604 37.5417 94.8125 37.3542 94.875 37.1875C94.9375 37.0208 95.0729 36.9062 95.2812 36.8438C95.1354 36.6146 94.9583 36.5104 94.75 36.5312C94.5417 36.5521 94.3229 36.6146 94.0938 36.7188C93.8854 36.8229 93.6875 36.9271 93.5 37.0312C93.3125 37.1354 93.1562 37.1562 93.0312 37.0938C92.9688 37.3854 92.8333 37.5938 92.625 37.7188C92.4375 37.8438 92.2292 37.9583 92 38.0625C91.7708 38.1458 91.5312 38.2396 91.2812 38.3438C91.0312 38.4479 90.8333 38.6146 90.6875 38.8438C90.5 38.7604 90.3229 38.8021 90.1562 38.9688C90.0104 39.1146 89.8542 39.2812 89.6875 39.4688C89.5417 39.6354 89.375 39.7604 89.1875 39.8438C89 39.9271 88.7812 39.8438 88.5312 39.5938C88.4062 39.9271 88.1979 40.1458 87.9062 40.25C87.6354 40.3542 87.3333 40.4062 87 40.4062C86.6667 40.4062 86.3229 40.3854 85.9688 40.3438C85.6354 40.3021 85.3333 40.3125 85.0625 40.375L84.5312 39.8438C84.4896 39.9479 84.4271 40.0312 84.3438 40.0938C84.2396 40.1562 84.1354 40.1667 84.0312 40.125C83.8646 39.7708 83.7083 39.3958 83.5625 39C83.3958 38.5833 83.2917 38.1771 83.25 37.7812C83.1875 37.3646 83.2188 36.9688 83.3438 36.5938C83.4688 36.1979 83.7188 35.8542 84.0938 35.5625C84.6771 34.5 85.4375 33.6667 86.375 33.0625C86.4792 33.1458 86.5938 33.1771 86.7188 33.1562C86.8438 33.1146 86.9688 33.0625 87.0938 33C87.2396 32.9167 87.375 32.8333 87.5 32.75C87.625 32.6458 87.7396 32.5833 87.8438 32.5625C87.9062 32.3333 88.0208 32.1146 88.1875 31.9062C88.375 31.6979 88.5729 31.5104 88.7812 31.3438C89.0104 31.1771 89.2396 31.0312 89.4688 30.9062C89.7188 30.7604 89.9479 30.6354 90.1562 30.5312C90.5521 30.3438 90.9167 30.1146 91.25 29.8438C91.6042 29.5521 91.9583 29.2812 92.3125 29.0312C92.6667 28.7604 93.0312 28.5312 93.4062 28.3438C93.7812 28.1562 94.2083 28.0625 94.6875 28.0625L95.25 28.5625C94.8958 28.7708 94.5833 29.0312 94.3125 29.3438C94.0625 29.6354 93.8021 29.9375 93.5312 30.25C93.2604 30.5417 92.9688 30.8125 92.6562 31.0625C92.3438 31.3125 91.9583 31.4792 91.5 31.5625C91.125 32.2917 90.6146 32.9167 89.9688 33.4375C89.3438 33.9375 88.6979 34.4062 88.0312 34.8438C88.0312 35.1562 87.9375 35.4062 87.75 35.5938C87.5625 35.7812 87.3438 35.9479 87.0938 36.0938C86.8438 36.2396 86.5938 36.375 86.3438 36.5C86.0938 36.6042 85.8854 36.75 85.7188 36.9375C85.5729 37.1042 85.5 37.3229 85.5 37.5938C85.5 37.8438 85.6354 38.1771 85.9062 38.5938C86.1562 38.4688 86.4583 38.3854 86.8125 38.3438C87.1667 38.3021 87.5104 38.25 87.8438 38.1875C88.1771 38.1042 88.4688 37.9896 88.7188 37.8438C88.9896 37.6771 89.1771 37.4271 89.2812 37.0938C89.5729 36.8438 89.8854 36.6875 90.2188 36.625C90.5521 36.5625 90.8958 36.5521 91.25 36.5938C91.9375 35.8438 92.625 35.1562 93.3125 34.5312C94.0208 33.8854 94.6875 33.2292 95.3125 32.5625C95.9375 31.8958 96.5104 31.1875 97.0312 30.4375C97.5729 29.6667 98.0417 28.7812 98.4375 27.7812C98.8542 27.6562 99.2292 27.7083 99.5625 27.9375C99.8958 28.1667 100.135 28.4583 100.281 28.8125C100.24 29.0625 100.167 29.3021 100.062 29.5312C99.9792 29.7396 99.8958 29.9479 99.8125 30.1562C99.75 30.3438 99.6979 30.5521 99.6562 30.7812C99.6354 31.0104 99.6771 31.2708 99.7812 31.5625C99.6146 31.5208 99.4792 31.5729 99.375 31.7188C99.2917 31.8646 99.1979 31.9896 99.0938 32.0938C99.1562 32.3646 99.1458 32.6146 99.0625 32.8438C98.9792 33.0521 98.875 33.2604 98.75 33.4688C98.625 33.6562 98.5104 33.8646 98.4062 34.0938C98.3229 34.3229 98.3021 34.5729 98.3438 34.8438C98.0521 35.3854 97.8333 35.9583 97.6875 36.5625C97.5625 37.1458 97.4792 37.7396 97.4375 38.3438L98 38.8438C98.2708 38.4479 98.6042 38.1667 99 38C99.4167 37.8333 99.8333 37.6979 100.25 37.5938C100.667 37.4688 101.073 37.3333 101.469 37.1875C101.865 37.0208 102.208 36.7396 102.5 36.3438C102.625 35.7396 102.885 35.3125 103.281 35.0625C103.677 34.7917 104.094 34.5625 104.531 34.375C104.969 34.1875 105.385 33.9792 105.781 33.75C106.198 33.5 106.49 33.1042 106.656 32.5625H107.438C107.396 32.6667 107.417 32.7604 107.5 32.8438C107.583 32.9271 107.656 33 107.719 33.0625ZM90.4375 46.9062C90.2292 47.0312 90 47.1458 89.75 47.25C89.5 47.3542 89.25 47.4688 89 47.5938C88.75 47.7188 88.5208 47.8646 88.3125 48.0312C88.1042 48.1979 87.9479 48.4062 87.8438 48.6562C87.6146 48.5312 87.3958 48.5208 87.1875 48.625C87 48.75 86.8125 48.8854 86.625 49.0312C86.4375 49.1979 86.2396 49.3333 86.0312 49.4375C85.8438 49.5417 85.6354 49.5312 85.4062 49.4062C85.0104 49.6562 84.6354 49.9271 84.2812 50.2188C83.9062 50.5104 83.5312 50.7917 83.1562 51.0625C82.7812 51.3542 82.3958 51.6146 82 51.8438C81.5833 52.0938 81.1458 52.2812 80.6875 52.4062C80.4583 52.7812 80.1562 53.0729 79.7812 53.2812C79.4062 53.5104 79.0312 53.7292 78.6562 53.9375C78.2604 54.1458 77.9062 54.3958 77.5938 54.6875C77.2812 54.9792 77.0833 55.3854 77 55.9062C76.3542 56.3229 75.9167 56.8542 75.6875 57.5C75.4375 58.1667 75.3021 58.8646 75.2812 59.5938C75.2604 60.3438 75.2917 61.0938 75.375 61.8438C75.4583 62.6146 75.5 63.3125 75.5 63.9375C75.7708 64.25 76.0417 64.4688 76.3125 64.5938C76.5833 64.7188 76.8646 64.7812 77.1562 64.7812C77.4479 64.7812 77.75 64.7396 78.0625 64.6562C78.3542 64.5938 78.6771 64.5312 79.0312 64.4688C79.1146 64.1562 79.2708 63.9479 79.5 63.8438C79.7083 63.7604 79.9375 63.6979 80.1875 63.6562C80.4167 63.6146 80.6354 63.5521 80.8438 63.4688C81.0312 63.4062 81.1354 63.2396 81.1562 62.9688L81.4375 63.2188C81.4583 62.8854 81.5521 62.6042 81.7188 62.375C81.8854 62.1667 82.0833 61.9688 82.3125 61.7812C82.5417 61.5938 82.7917 61.4167 83.0625 61.25C83.3125 61.0833 83.5312 60.8958 83.7188 60.6875C83.6771 60.2917 83.75 59.9583 83.9375 59.6875C84.125 59.4167 84.3333 59.1667 84.5625 58.9375C84.7917 58.7083 85 58.4583 85.1875 58.1875C85.3542 57.9167 85.4167 57.5729 85.375 57.1562C85.5833 57.0729 85.7292 56.9375 85.8125 56.75C85.8958 56.5625 85.9792 56.3854 86.0625 56.2188C86.1458 56.0521 86.25 55.9271 86.375 55.8438C86.5208 55.7604 86.7396 55.7812 87.0312 55.9062C86.7396 55.6771 86.6146 55.5 86.6562 55.375C86.7188 55.25 86.8229 55.1354 86.9688 55.0312C87.1146 54.9479 87.25 54.8438 87.375 54.7188C87.5 54.5938 87.5 54.4062 87.375 54.1562C87.875 53.9479 88.1979 53.6458 88.3438 53.25C88.4896 52.8542 88.5938 52.4271 88.6562 51.9688C88.7396 51.5312 88.8542 51.0938 89 50.6562C89.1458 50.2396 89.4688 49.9062 89.9688 49.6562C89.9271 49.2812 89.9896 48.9479 90.1562 48.6562C90.3438 48.3854 90.5208 48.125 90.6875 47.875C90.875 47.625 91 47.3646 91.0625 47.0938C91.1458 46.8229 91.0729 46.5 90.8438 46.125L90.4375 46.9062ZM127.812 38.7188C127.521 39.2188 127.292 39.625 127.125 39.9375C126.979 40.2292 126.823 40.4792 126.656 40.6875C126.51 40.875 126.333 41.0521 126.125 41.2188C125.938 41.3646 125.667 41.5521 125.312 41.7812C125.083 41.9896 124.854 42.1667 124.625 42.3125C124.438 42.4583 124.25 42.5833 124.062 42.6875C123.896 42.7917 123.76 42.8438 123.656 42.8438C123.615 42.8438 123.573 42.8333 123.531 42.8125C123.49 42.8125 123.448 42.8125 123.406 42.8125C123.281 42.8125 123.156 42.8125 123.031 42.8125C122.927 42.8333 122.833 42.7604 122.75 42.5938C122.688 42.6562 122.635 42.7292 122.594 42.8125C122.552 42.8958 122.51 42.9688 122.469 43.0312C122.427 43.1146 122.365 43.1771 122.281 43.2188C122.219 43.2604 122.125 43.2604 122 43.2188L121.844 43.0312L121.375 43.4375C120.792 43.1458 120.229 42.8958 119.688 42.6875C119.167 42.5 118.698 42.2708 118.281 42C117.865 41.7292 117.51 41.3854 117.219 40.9688C116.927 40.5312 116.719 39.9375 116.594 39.1875C116.49 39.0625 116.375 38.9583 116.25 38.875C116.125 38.7708 115.979 38.7396 115.812 38.7812C115.604 39.1354 115.354 39.4375 115.062 39.6875C114.771 39.9375 114.479 40.2083 114.188 40.5C114.083 40.6042 114 40.7188 113.938 40.8438C113.875 40.9688 113.792 41.0833 113.688 41.1875C113.521 41.375 113.323 41.5104 113.094 41.5938C112.865 41.6562 112.635 41.7188 112.406 41.7812C112.177 41.8438 111.958 41.9479 111.75 42.0938C111.562 42.2396 111.427 42.4896 111.344 42.8438C111.094 42.6979 110.844 42.6562 110.594 42.7188C110.406 42.7604 110.208 42.8021 110 42.8438C109.792 42.9062 109.583 42.9375 109.375 42.9375C109.188 42.9583 109 42.9375 108.812 42.875C108.625 42.8125 108.458 42.6771 108.312 42.4688C108.021 42.5938 107.75 42.5833 107.5 42.4375C107.25 42.3125 107.01 42.1354 106.781 41.9062C106.573 41.6562 106.365 41.3958 106.156 41.125C105.948 40.8542 105.75 40.6562 105.562 40.5312C105.438 40.1979 105.448 39.9167 105.594 39.6875C105.719 39.4375 105.865 39.2083 106.031 39C106.177 38.7708 106.281 38.5521 106.344 38.3438C106.406 38.1146 106.312 37.8438 106.062 37.5312C106.271 37.2188 106.458 36.8958 106.625 36.5625C106.792 36.2083 106.958 35.8646 107.125 35.5312C107.312 35.1771 107.5 34.8438 107.688 34.5312C107.896 34.1979 108.146 33.9167 108.438 33.6875C108.312 33.5417 108.25 33.4062 108.25 33.2812C108.25 33.1354 108.281 33 108.344 32.875C108.406 32.7292 108.479 32.5938 108.562 32.4688C108.646 32.3229 108.708 32.1875 108.75 32.0625L109.656 31.625L109.438 30.875C109.667 30.9167 109.833 30.9062 109.938 30.8438C110.062 30.7812 110.146 30.6875 110.188 30.5625C110.25 30.4375 110.292 30.3021 110.312 30.1562C110.354 29.9896 110.406 29.8438 110.469 29.7188C110.573 29.5312 110.729 29.3958 110.938 29.3125C111.375 28.9792 111.802 28.625 112.219 28.25C112.656 27.875 113.083 27.5104 113.5 27.1562C113.938 26.8021 114.385 26.4688 114.844 26.1562C115.302 25.8229 115.802 25.5417 116.344 25.3125C116.719 25.375 117.01 25.4896 117.219 25.6562C117.448 25.8229 117.615 26.0208 117.719 26.25C117.844 26.4792 117.938 26.7396 118 27.0312C118.062 27.3021 118.125 27.5729 118.188 27.8438C118.292 28.1979 118.417 28.5 118.562 28.75C118.708 29 118.958 29.2083 119.312 29.375C119.021 29.875 118.906 30.375 118.969 30.875C119.031 31.3542 119.094 31.8646 119.156 32.4062C119.219 32.9062 119.208 33.3958 119.125 33.875C119.062 34.3542 118.76 34.7812 118.219 35.1562C118.177 35.3021 118.167 35.4583 118.188 35.625C118.208 35.7917 118.219 35.9583 118.219 36.125C118.219 36.2917 118.188 36.4479 118.125 36.5938C118.062 36.7396 117.948 36.8542 117.781 36.9375C117.969 37.1667 118.062 37.3958 118.062 37.625C118.083 37.8542 118.094 38.0729 118.094 38.2812C118.115 38.4896 118.167 38.6771 118.25 38.8438C118.354 39.0104 118.583 39.1354 118.938 39.2188C119 39.4896 119.052 39.6979 119.094 39.8438C119.156 39.9688 119.219 40.0729 119.281 40.1562C119.365 40.2396 119.469 40.3229 119.594 40.4062C119.719 40.4688 119.885 40.5729 120.094 40.7188C120.26 40.7604 120.448 40.7604 120.656 40.7188C120.865 40.6771 121.031 40.7396 121.156 40.9062C121.26 40.8021 121.385 40.75 121.531 40.75C121.677 40.7292 121.812 40.7292 121.938 40.75L122.344 41.4375C122.573 41.2708 122.833 41.125 123.125 41C123.417 40.875 123.698 40.7708 123.969 40.6875C124.281 40.6042 124.594 40.5312 124.906 40.4688L127.812 38.7188ZM115.812 28.0312C115.625 28.1979 115.396 28.3646 115.125 28.5312C114.854 28.6979 114.583 28.875 114.312 29.0625C114.062 29.25 113.844 29.4583 113.656 29.6875C113.469 29.8958 113.354 30.1458 113.312 30.4375C112.833 30.5208 112.5 30.7188 112.312 31.0312C112.125 31.3438 111.969 31.6875 111.844 32.0625C111.719 32.4375 111.583 32.8125 111.438 33.1875C111.292 33.5417 111.031 33.8229 110.656 34.0312C110.531 34.1146 110.417 34.1562 110.312 34.1562C110.333 34.1562 110.271 34.1979 110.125 34.2812C109.896 34.4479 109.698 34.6562 109.531 34.9062C109.365 35.1562 109.219 35.4271 109.094 35.7188C108.99 36.0104 108.885 36.3125 108.781 36.625C108.698 36.9167 108.615 37.1875 108.531 37.4375C108.24 37.4792 108.021 37.5417 107.875 37.625C107.729 37.7083 107.635 37.8021 107.594 37.9062C107.573 37.9896 107.583 38.0938 107.625 38.2188C107.667 38.3438 107.729 38.4792 107.812 38.625C107.896 38.75 107.979 38.8958 108.062 39.0625C108.167 39.2292 108.25 39.3958 108.312 39.5625C108.375 39.7292 108.406 39.8958 108.406 40.0625C108.427 40.2292 108.385 40.3854 108.281 40.5312C108.573 40.7604 108.854 40.8125 109.125 40.6875C109.396 40.5417 109.646 40.3854 109.875 40.2188C109.958 40.1562 110.042 40.0938 110.125 40.0312C110.229 39.9479 110.333 39.8854 110.438 39.8438C110.917 39.9479 111.354 39.9167 111.75 39.75C112.146 39.5833 112.51 39.3542 112.844 39.0625C113.177 38.7708 113.5 38.4583 113.812 38.125C114.125 37.7917 114.438 37.5 114.75 37.25L114.5 37C114.875 36.8958 115.135 36.7604 115.281 36.5938C115.448 36.4062 115.552 36.1979 115.594 35.9688C115.635 35.7396 115.635 35.5 115.594 35.25C115.552 34.9792 115.521 34.6979 115.5 34.4062C115.479 34.2396 115.469 34.0833 115.469 33.9375C115.49 33.7708 115.531 33.6042 115.594 33.4375C115.427 32.9583 115.396 32.5 115.5 32.0625C115.625 31.625 115.781 31.2083 115.969 30.8125C116.177 30.3958 116.375 29.9792 116.562 29.5625C116.75 29.1458 116.844 28.7083 116.844 28.25L115.812 28.0312ZM157.812 30.625C157.833 30.9792 157.792 31.3229 157.688 31.6562C157.583 31.9688 157.469 32.2917 157.344 32.625C157.219 32.9375 157.094 33.2604 156.969 33.5938C156.865 33.9062 156.812 34.2396 156.812 34.5938C156.583 34.5729 156.396 34.6458 156.25 34.8125C156.125 34.9583 156.01 35.1458 155.906 35.375C155.823 35.6042 155.75 35.8438 155.688 36.0938C155.625 36.3229 155.562 36.5 155.5 36.625C155.083 37.4167 154.552 38.1771 153.906 38.9062C153.281 39.6146 152.583 40.2812 151.812 40.9062C151.062 41.5104 150.271 42.0625 149.438 42.5625C148.604 43.0625 147.771 43.4896 146.938 43.8438L146.906 43.875C146.531 43.875 146.115 43.8646 145.656 43.8438C145.219 43.8229 144.844 43.6667 144.531 43.375C144.24 43.4167 143.917 43.3854 143.562 43.2812C143.208 43.1979 142.927 43.0521 142.719 42.8438L142.688 42.8125C142.521 42.5208 142.344 42.2708 142.156 42.0625C141.969 41.8542 141.76 41.6354 141.531 41.4062C141.24 41.0938 140.958 40.7917 140.688 40.5C140.438 40.2083 140.24 39.8542 140.094 39.4375C139.927 38.9583 139.771 38.4792 139.625 38C139.5 37.5 139.333 37.0104 139.125 36.5312C138.75 36.9896 138.365 37.3854 137.969 37.7188C137.573 38.0312 137.188 38.3438 136.812 38.6562C136.438 38.9688 136.083 39.3229 135.75 39.7188C135.438 40.1146 135.156 40.6146 134.906 41.2188L134.875 41.2812C134.25 41.2812 133.708 41.4479 133.25 41.7812C132.812 42.0938 132.385 42.3958 131.969 42.6875C131.552 42.9792 131.115 43.1875 130.656 43.3125C130.219 43.4375 129.708 43.2917 129.125 42.875H128.062L128.031 42.8125C127.656 42.0417 127.292 41.2292 126.938 40.375C126.604 39.5208 126.344 38.6562 126.156 37.7812C125.969 36.8854 125.885 36 125.906 35.125C125.927 34.2292 126.104 33.3542 126.438 32.5C126.583 32.1458 126.74 31.8125 126.906 31.5C127.094 31.1875 127.302 30.875 127.531 30.5625C127.552 30.5417 127.562 30.5208 127.562 30.5C127.688 30.6042 127.812 30.5729 127.938 30.4062C128.083 30.2396 128.188 30.125 128.25 30.0625V29C128.312 28.9792 128.396 28.9688 128.5 28.9688C128.625 28.9688 128.74 28.9688 128.844 28.9688C128.948 28.9688 129.042 28.9688 129.125 28.9688C129.208 28.9479 129.26 28.8958 129.281 28.8125C129.302 28.7917 129.302 28.7604 129.281 28.7188C129.26 28.6771 129.25 28.6354 129.25 28.5938C129.25 28.3438 129.312 28.1458 129.438 28C129.583 27.8333 129.75 27.6875 129.938 27.5625C130.125 27.4375 130.312 27.3333 130.5 27.25C130.688 27.1458 130.823 27.0417 130.906 26.9375C131.073 26.9375 131.229 26.9479 131.375 26.9688C131.521 26.9688 131.656 27.0208 131.781 27.125C131.906 27.2292 131.99 27.375 132.031 27.5625C132.094 27.75 132.125 27.9479 132.125 28.1562C132.146 28.3438 132.167 28.5417 132.188 28.75C132.208 28.9583 132.25 29.1354 132.312 29.2812L132.344 29.3125C132.344 29.6042 132.271 29.8542 132.125 30.0625C132 30.25 131.844 30.4271 131.656 30.5938C131.49 30.7604 131.312 30.9271 131.125 31.0938C130.958 31.2604 130.844 31.4583 130.781 31.6875V31.7188C130.552 32.0104 130.312 32.3021 130.062 32.5938C129.833 32.8854 129.583 33.1771 129.312 33.4688C129.542 33.6562 129.615 33.8229 129.531 33.9688C129.469 34.0938 129.365 34.2083 129.219 34.3125C129.094 34.4167 129 34.5208 128.938 34.625C128.896 34.7292 129.01 34.8438 129.281 34.9688C129.219 35.1562 129.115 35.3438 128.969 35.5312C128.823 35.6979 128.677 35.875 128.531 36.0625C128.406 36.25 128.312 36.4375 128.25 36.625C128.208 36.8125 128.271 37.0208 128.438 37.25L128.5 37.2812C128.438 37.3854 128.417 37.5833 128.438 37.875C128.479 38.1458 128.531 38.4479 128.594 38.7812C128.677 39.0938 128.76 39.4062 128.844 39.7188C128.927 40.0104 128.979 40.2292 129 40.375C129.167 40.6458 129.365 40.8333 129.594 40.9375C129.844 41.0208 130.073 41.0521 130.281 41.0312C130.51 41.0104 130.698 40.9479 130.844 40.8438C131.01 40.7396 131.094 40.6146 131.094 40.4688L131.312 40.375C131.354 40.5208 131.417 40.5938 131.5 40.5938C131.583 40.5729 131.677 40.5312 131.781 40.4688C131.885 40.4271 131.958 40.3958 132 40.375C132.042 40.3542 132.115 40.3333 132.219 40.3125C132.594 40.2292 132.979 40.0521 133.375 39.7812C133.792 39.5104 134.177 39.1979 134.531 38.8438C134.885 38.4896 135.188 38.1042 135.438 37.6875C135.708 37.2708 135.896 36.8854 136 36.5312V36.4688H136.062C136.479 36.3021 136.823 36.0625 137.094 35.75C137.365 35.4375 137.615 35.125 137.844 34.8125C138.073 34.4792 138.323 34.1875 138.594 33.9375C138.865 33.6667 139.208 33.4896 139.625 33.4062C139.688 33.2396 139.781 33.0938 139.906 32.9688C140.031 32.8229 140.146 32.6875 140.25 32.5625C140.375 32.4167 140.479 32.2812 140.562 32.1562C140.667 32.0104 140.719 31.8542 140.719 31.6875C140.719 31.6042 140.698 31.5 140.656 31.375C140.635 31.25 140.625 31.1667 140.625 31.125C140.708 31.0417 140.875 30.9062 141.125 30.7188C141.375 30.5104 141.625 30.2917 141.875 30.0625C142.146 29.8333 142.396 29.6146 142.625 29.4062C142.854 29.1979 142.99 29.0417 143.031 28.9375L143.094 29C143.323 29.2292 143.479 29.4688 143.562 29.7188C143.646 29.9479 143.688 30.1875 143.688 30.4375C143.688 30.6667 143.656 30.9167 143.594 31.1875C143.531 31.4375 143.479 31.6875 143.438 31.9375L143.406 31.9688C143.281 32.1771 143.156 32.3646 143.031 32.5312C142.927 32.6771 142.792 32.8333 142.625 33C142.354 33.2708 142.104 33.6042 141.875 34C141.938 34.3125 141.938 34.625 141.875 34.9375C141.812 35.25 141.75 35.5625 141.688 35.875C141.625 36.1667 141.594 36.4583 141.594 36.75C141.615 37.0417 141.719 37.3333 141.906 37.625C141.719 37.7292 141.615 37.8438 141.594 37.9688C141.594 38.0729 141.625 38.1875 141.688 38.3125C141.771 38.4375 141.854 38.5625 141.938 38.6875C142.042 38.8125 142.104 38.9479 142.125 39.0938C142.417 39.4688 142.76 39.7604 143.156 39.9688C143.552 40.1771 143.969 40.3229 144.406 40.4062C144.844 40.4896 145.281 40.5417 145.719 40.5625C146.177 40.5625 146.625 40.5625 147.062 40.5625H147.938C148.604 40.5625 149.135 40.4062 149.531 40.0938C149.927 39.7812 150.271 39.4062 150.562 38.9688C150.875 38.5312 151.188 38.0833 151.5 37.625C151.812 37.1667 152.219 36.7917 152.719 36.5C152.719 36.1667 152.792 35.9167 152.938 35.75C153.083 35.5833 153.229 35.4375 153.375 35.3125C153.542 35.1875 153.667 35.0521 153.75 34.9062C153.854 34.7396 153.844 34.5 153.719 34.1875C153.969 34.1042 154.177 33.9479 154.344 33.7188C154.51 33.4896 154.656 33.2396 154.781 32.9688C154.927 32.6771 155.052 32.3958 155.156 32.125C155.281 31.8333 155.417 31.5833 155.562 31.375C155.5 31.1458 155.479 30.9271 155.5 30.7188C155.542 30.5104 155.573 30.3125 155.594 30.125C155.615 29.9167 155.594 29.7188 155.531 29.5312C155.469 29.3438 155.312 29.1458 155.062 28.9375L155.031 28.9062V28.875C154.927 28.625 154.906 28.4167 154.969 28.25C155.052 28.0833 155.156 27.9271 155.281 27.7812C155.427 27.6354 155.552 27.5 155.656 27.375C155.781 27.25 155.833 27.1042 155.812 26.9375C156.458 26.9375 156.917 27.0521 157.188 27.2812C157.479 27.4896 157.667 27.7708 157.75 28.125C157.833 28.4583 157.854 28.8438 157.812 29.2812C157.792 29.7188 157.792 30.1667 157.812 30.625ZM181.781 38.7188C181.49 39.2188 181.26 39.625 181.094 39.9375C180.948 40.2292 180.792 40.4792 180.625 40.6875C180.479 40.875 180.302 41.0521 180.094 41.2188C179.906 41.3646 179.635 41.5521 179.281 41.7812C179.052 41.9896 178.823 42.1667 178.594 42.3125C178.406 42.4583 178.219 42.5833 178.031 42.6875C177.865 42.7917 177.729 42.8438 177.625 42.8438C177.583 42.8438 177.542 42.8333 177.5 42.8125C177.458 42.8125 177.417 42.8125 177.375 42.8125C177.25 42.8125 177.125 42.8125 177 42.8125C176.896 42.8333 176.802 42.7604 176.719 42.5938C176.656 42.6562 176.604 42.7292 176.562 42.8125C176.521 42.8958 176.479 42.9688 176.438 43.0312C176.396 43.1146 176.333 43.1771 176.25 43.2188C176.188 43.2604 176.094 43.2604 175.969 43.2188L175.812 43.0312L175.344 43.4375C174.76 43.1458 174.198 42.8958 173.656 42.6875C173.135 42.5 172.667 42.2708 172.25 42C171.833 41.7292 171.479 41.3854 171.188 40.9688C170.896 40.5312 170.688 39.9375 170.562 39.1875C170.458 39.0625 170.344 38.9583 170.219 38.875C170.094 38.7708 169.948 38.7396 169.781 38.7812C169.573 39.1354 169.323 39.4375 169.031 39.6875C168.74 39.9375 168.448 40.2083 168.156 40.5C168.052 40.6042 167.969 40.7188 167.906 40.8438C167.844 40.9688 167.76 41.0833 167.656 41.1875C167.49 41.375 167.292 41.5104 167.062 41.5938C166.833 41.6562 166.604 41.7188 166.375 41.7812C166.146 41.8438 165.927 41.9479 165.719 42.0938C165.531 42.2396 165.396 42.4896 165.312 42.8438C165.062 42.6979 164.812 42.6562 164.562 42.7188C164.375 42.7604 164.177 42.8021 163.969 42.8438C163.76 42.9062 163.552 42.9375 163.344 42.9375C163.156 42.9583 162.969 42.9375 162.781 42.875C162.594 42.8125 162.427 42.6771 162.281 42.4688C161.99 42.5938 161.719 42.5833 161.469 42.4375C161.219 42.3125 160.979 42.1354 160.75 41.9062C160.542 41.6562 160.333 41.3958 160.125 41.125C159.917 40.8542 159.719 40.6562 159.531 40.5312C159.406 40.1979 159.417 39.9167 159.562 39.6875C159.688 39.4375 159.833 39.2083 160 39C160.146 38.7708 160.25 38.5521 160.312 38.3438C160.375 38.1146 160.281 37.8438 160.031 37.5312C160.24 37.2188 160.427 36.8958 160.594 36.5625C160.76 36.2083 160.927 35.8646 161.094 35.5312C161.281 35.1771 161.469 34.8438 161.656 34.5312C161.865 34.1979 162.115 33.9167 162.406 33.6875C162.281 33.5417 162.219 33.4062 162.219 33.2812C162.219 33.1354 162.25 33 162.312 32.875C162.375 32.7292 162.448 32.5938 162.531 32.4688C162.615 32.3229 162.677 32.1875 162.719 32.0625L163.625 31.625L163.406 30.875C163.635 30.9167 163.802 30.9062 163.906 30.8438C164.031 30.7812 164.115 30.6875 164.156 30.5625C164.219 30.4375 164.26 30.3021 164.281 30.1562C164.323 29.9896 164.375 29.8438 164.438 29.7188C164.542 29.5312 164.698 29.3958 164.906 29.3125C165.344 28.9792 165.771 28.625 166.188 28.25C166.625 27.875 167.052 27.5104 167.469 27.1562C167.906 26.8021 168.354 26.4688 168.812 26.1562C169.271 25.8229 169.771 25.5417 170.312 25.3125C170.688 25.375 170.979 25.4896 171.188 25.6562C171.417 25.8229 171.583 26.0208 171.688 26.25C171.812 26.4792 171.906 26.7396 171.969 27.0312C172.031 27.3021 172.094 27.5729 172.156 27.8438C172.26 28.1979 172.385 28.5 172.531 28.75C172.677 29 172.927 29.2083 173.281 29.375C172.99 29.875 172.875 30.375 172.938 30.875C173 31.3542 173.062 31.8646 173.125 32.4062C173.188 32.9062 173.177 33.3958 173.094 33.875C173.031 34.3542 172.729 34.7812 172.188 35.1562C172.146 35.3021 172.135 35.4583 172.156 35.625C172.177 35.7917 172.188 35.9583 172.188 36.125C172.188 36.2917 172.156 36.4479 172.094 36.5938C172.031 36.7396 171.917 36.8542 171.75 36.9375C171.938 37.1667 172.031 37.3958 172.031 37.625C172.052 37.8542 172.062 38.0729 172.062 38.2812C172.083 38.4896 172.135 38.6771 172.219 38.8438C172.323 39.0104 172.552 39.1354 172.906 39.2188C172.969 39.4896 173.021 39.6979 173.062 39.8438C173.125 39.9688 173.188 40.0729 173.25 40.1562C173.333 40.2396 173.438 40.3229 173.562 40.4062C173.688 40.4688 173.854 40.5729 174.062 40.7188C174.229 40.7604 174.417 40.7604 174.625 40.7188C174.833 40.6771 175 40.7396 175.125 40.9062C175.229 40.8021 175.354 40.75 175.5 40.75C175.646 40.7292 175.781 40.7292 175.906 40.75L176.312 41.4375C176.542 41.2708 176.802 41.125 177.094 41C177.385 40.875 177.667 40.7708 177.938 40.6875C178.25 40.6042 178.562 40.5312 178.875 40.4688L181.781 38.7188ZM169.781 28.0312C169.594 28.1979 169.365 28.3646 169.094 28.5312C168.823 28.6979 168.552 28.875 168.281 29.0625C168.031 29.25 167.812 29.4583 167.625 29.6875C167.438 29.8958 167.323 30.1458 167.281 30.4375C166.802 30.5208 166.469 30.7188 166.281 31.0312C166.094 31.3438 165.938 31.6875 165.812 32.0625C165.688 32.4375 165.552 32.8125 165.406 33.1875C165.26 33.5417 165 33.8229 164.625 34.0312C164.5 34.1146 164.385 34.1562 164.281 34.1562C164.302 34.1562 164.24 34.1979 164.094 34.2812C163.865 34.4479 163.667 34.6562 163.5 34.9062C163.333 35.1562 163.188 35.4271 163.062 35.7188C162.958 36.0104 162.854 36.3125 162.75 36.625C162.667 36.9167 162.583 37.1875 162.5 37.4375C162.208 37.4792 161.99 37.5417 161.844 37.625C161.698 37.7083 161.604 37.8021 161.562 37.9062C161.542 37.9896 161.552 38.0938 161.594 38.2188C161.635 38.3438 161.698 38.4792 161.781 38.625C161.865 38.75 161.948 38.8958 162.031 39.0625C162.135 39.2292 162.219 39.3958 162.281 39.5625C162.344 39.7292 162.375 39.8958 162.375 40.0625C162.396 40.2292 162.354 40.3854 162.25 40.5312C162.542 40.7604 162.823 40.8125 163.094 40.6875C163.365 40.5417 163.615 40.3854 163.844 40.2188C163.927 40.1562 164.01 40.0938 164.094 40.0312C164.198 39.9479 164.302 39.8854 164.406 39.8438C164.885 39.9479 165.323 39.9167 165.719 39.75C166.115 39.5833 166.479 39.3542 166.812 39.0625C167.146 38.7708 167.469 38.4583 167.781 38.125C168.094 37.7917 168.406 37.5 168.719 37.25L168.469 37C168.844 36.8958 169.104 36.7604 169.25 36.5938C169.417 36.4062 169.521 36.1979 169.562 35.9688C169.604 35.7396 169.604 35.5 169.562 35.25C169.521 34.9792 169.49 34.6979 169.469 34.4062C169.448 34.2396 169.438 34.0833 169.438 33.9375C169.458 33.7708 169.5 33.6042 169.562 33.4375C169.396 32.9583 169.365 32.5 169.469 32.0625C169.594 31.625 169.75 31.2083 169.938 30.8125C170.146 30.3958 170.344 29.9792 170.531 29.5625C170.719 29.1458 170.812 28.7083 170.812 28.25L169.781 28.0312ZM231.781 19.2812C231.781 19.4688 231.75 19.6354 231.688 19.7812C231.25 19.4688 230.844 19.1042 230.469 18.6875C230.115 18.25 229.729 17.8646 229.312 17.5312C228.917 17.1771 228.479 16.9167 228 16.75C227.542 16.5833 226.99 16.6042 226.344 16.8125C226.031 16.6458 225.74 16.6458 225.469 16.8125C225.198 16.9792 224.948 17.1458 224.719 17.3125V17.5C224.531 17.5 224.333 17.4792 224.125 17.4375C223.938 17.3958 223.75 17.3958 223.562 17.4375C223.396 17.4583 223.25 17.5417 223.125 17.6875C223.021 17.8333 222.969 18.0938 222.969 18.4688C222.552 18.4062 222.198 18.4896 221.906 18.7188C221.635 18.9479 221.396 19.2083 221.188 19.5C221 19.7917 220.812 20.0625 220.625 20.3125C220.438 20.5417 220.229 20.6354 220 20.5938C220 20.6146 219.979 20.6458 219.938 20.6875C219.771 20.9375 219.573 21.1771 219.344 21.4062C219.135 21.6146 218.938 21.8333 218.75 22.0625C217.875 23.2083 217.073 24.4062 216.344 25.6562C215.635 26.9062 215 28.1875 214.438 29.5C213.958 29.7083 213.604 29.9792 213.375 30.3125C213.146 30.625 212.979 30.9688 212.875 31.3438C212.792 31.6979 212.729 32.0729 212.688 32.4688C212.667 32.8438 212.615 33.2188 212.531 33.5938C212.469 33.9479 212.344 34.2812 212.156 34.5938C211.969 34.8854 211.667 35.1354 211.25 35.3438L211.375 35.875C211.583 35.7917 211.74 35.8021 211.844 35.9062C211.948 36.0104 212.01 36.1562 212.031 36.3438C212.052 36.5312 212.042 36.7292 212 36.9375C211.979 37.125 211.948 37.2812 211.906 37.4062C211.448 37.8646 211.208 38.3438 211.188 38.8438C211.167 39.3229 211.188 39.8021 211.25 40.2812C211.312 40.7604 211.323 41.2292 211.281 41.6875C211.26 42.125 211.01 42.5417 210.531 42.9375C210.344 42.8333 210.156 42.7812 209.969 42.7812C209.802 42.7812 209.615 42.8229 209.406 42.9062C209.24 42.9479 209.115 42.9688 209.031 42.9688C208.948 42.9688 208.844 42.8958 208.719 42.75C208.615 42.625 208.542 42.4583 208.5 42.25C208.458 42.0625 208.427 41.8646 208.406 41.6562C208.406 41.4479 208.396 41.2396 208.375 41.0312C208.375 40.8229 208.365 40.6458 208.344 40.5C208.865 39.8333 209.177 39.1458 209.281 38.4375C209.406 37.7292 209.458 37.0104 209.438 36.2812C209.438 35.5521 209.448 34.8229 209.469 34.0938C209.49 33.3646 209.677 32.6458 210.031 31.9375C210.031 31.7083 210 31.5625 209.938 31.5C209.896 31.4375 209.833 31.3229 209.75 31.1562L210 31.0312C209.896 30.3021 209.865 29.6458 209.906 29.0625C209.969 28.4583 210.062 27.8021 210.188 27.0938L210.219 26.9062L210.094 26.7812C209.948 26.6354 209.875 26.4792 209.875 26.3125C209.896 26.1458 209.938 25.9792 210 25.8125C210.083 25.6458 210.156 25.4896 210.219 25.3438C210.302 25.1771 210.323 25.0104 210.281 24.8438C210.219 24.5938 210.146 24.3438 210.062 24.0938C210 23.8229 209.948 23.5521 209.906 23.2812C209.76 22.6771 209.625 22.125 209.5 21.625C209.375 21.125 209.135 20.6146 208.781 20.0938C208.385 20.1979 207.99 20.3438 207.594 20.5312C207.198 20.6979 206.823 20.9062 206.469 21.1562C206.135 21.4062 205.833 21.6979 205.562 22.0312C205.292 22.3646 205.094 22.7292 204.969 23.125L204.938 23.2188C204.958 23.2396 204.969 23.2708 204.969 23.3125C204.99 23.4583 204.948 23.6042 204.844 23.75C204.76 23.875 204.656 24.0208 204.531 24.1875C204.406 24.3333 204.292 24.5104 204.188 24.7188C204.083 24.9062 204.042 25.1354 204.062 25.4062C204.083 25.6146 204.052 25.8542 203.969 26.125C203.885 26.3958 203.781 26.6667 203.656 26.9375C203.531 27.2083 203.385 27.4688 203.219 27.7188C203.073 27.9688 202.938 28.1771 202.812 28.3438V28.375C202.562 28.8333 202.365 29.3125 202.219 29.8125C202.073 30.3125 201.938 30.8229 201.812 31.3438C201.688 31.8438 201.531 32.3438 201.344 32.8438C201.177 33.3229 200.927 33.7812 200.594 34.2188C200.823 34.8021 200.885 35.3854 200.781 35.9688C200.698 36.5312 200.542 37.1042 200.312 37.6875C200.104 38.25 199.885 38.8229 199.656 39.4062C199.448 39.9688 199.344 40.5417 199.344 41.125C199.344 41.2292 199.344 41.3229 199.344 41.4062C199.365 41.4896 199.375 41.5833 199.375 41.6875C199.271 41.8542 199.125 41.9583 198.938 42C198.771 42.0208 198.583 42.0104 198.375 41.9688C198.167 41.9062 197.969 41.8333 197.781 41.75C197.594 41.6458 197.438 41.5521 197.312 41.4688C197.042 41.2604 196.896 41.0312 196.875 40.7812C196.854 40.5104 196.875 40.2396 196.938 39.9688C197 39.6979 197.052 39.4271 197.094 39.1562C197.135 38.8854 197.094 38.6354 196.969 38.4062C197.115 37.8438 197.281 37.3021 197.469 36.7812C197.677 36.2396 197.865 35.6979 198.031 35.1562C198.219 34.5938 198.375 34.0417 198.5 33.5C198.646 32.9375 198.729 32.3542 198.75 31.75C199 31.4375 199.177 31.0938 199.281 30.7188C199.385 30.3438 199.469 29.9688 199.531 29.5938C199.594 29.2188 199.667 28.8438 199.75 28.4688C199.833 28.0938 199.969 27.7292 200.156 27.375C200.177 27.3542 200.188 27.3438 200.188 27.3438C200.188 27.3229 200.198 27.3021 200.219 27.2812C200.344 26.7396 200.396 26.25 200.375 25.8125C200.354 25.3542 200.312 24.8542 200.25 24.3125C200.25 24.2083 200.24 24.0729 200.219 23.9062C200.219 23.7396 200.219 23.5625 200.219 23.375C200.219 23.1875 200.208 23.0208 200.188 22.875C200.188 22.7083 200.177 22.5938 200.156 22.5312C200.156 22.4688 200.146 22.4062 200.125 22.3438C200.104 22.2812 200.094 22.2188 200.094 22.1562C200.094 21.7604 200.167 21.375 200.312 21C200.458 20.6042 200.531 20.1979 200.531 19.7812C200.531 19.4271 200.427 19.0938 200.219 18.7812C200.031 18.4479 199.781 18.1979 199.469 18.0312C199.427 18.0104 199.365 18 199.281 18C198.99 18 198.75 18.0625 198.562 18.1875C198.396 18.2917 198.26 18.4375 198.156 18.625C198.052 18.7917 197.969 18.9896 197.906 19.2188C197.865 19.4271 197.823 19.6458 197.781 19.875C197.781 19.9583 197.76 20.0833 197.719 20.25C197.698 20.4167 197.667 20.5208 197.625 20.5625C197.521 20.7708 197.375 20.9896 197.188 21.2188C197.021 21.4479 196.865 21.6667 196.719 21.875C196.323 22.4375 195.979 23.0104 195.688 23.5938C195.417 24.1562 195.177 24.7708 194.969 25.4375C194.719 25.4167 194.51 25.4375 194.344 25.5C194.198 25.5625 194.073 25.6562 193.969 25.7812C193.865 25.9062 193.76 26.0521 193.656 26.2188C193.552 26.3854 193.427 26.5417 193.281 26.6875L193.062 26.9062L193.219 27.0625C192.865 27.2917 192.615 27.5938 192.469 27.9688C192.323 28.3438 192.219 28.7396 192.156 29.1562C192.115 29.4688 192.073 29.7292 192.031 29.9375C191.969 30.1458 191.885 30.3125 191.781 30.4375C191.677 30.5417 191.531 30.6146 191.344 30.6562C191.135 30.6771 190.865 30.6667 190.531 30.625H190.438L190.375 30.6875C190.042 30.8542 189.854 31.0521 189.812 31.2812C189.75 31.4896 189.729 31.6979 189.75 31.9062C189.75 32.1146 189.75 32.3021 189.75 32.4688C189.729 32.6354 189.583 32.7292 189.312 32.75C189.042 32.7917 188.75 32.8021 188.438 32.7812C188.125 32.7604 187.844 32.6771 187.594 32.5312C187.594 32.3438 187.583 32.1979 187.562 32.0938C187.521 31.2396 187.677 30.4167 188.031 29.625C188.365 28.8333 188.75 28.0938 189.188 27.4062V27.375H189.219V27.3125C189.365 26.75 189.562 26.1667 189.812 25.5625C190.042 24.9583 190.312 24.375 190.625 23.8125C190.938 23.25 191.292 22.7188 191.688 22.2188C192.062 21.7188 192.479 21.2917 192.938 20.9375C192.875 20.7708 192.833 20.6458 192.812 20.5625C192.812 20.4583 192.833 20.3854 192.875 20.3438C192.917 20.2812 192.979 20.2292 193.062 20.1875C193.167 20.1458 193.302 20.0729 193.469 19.9688C193.552 19.7812 193.688 19.5729 193.875 19.3438C194.062 19.0938 194.271 18.8438 194.5 18.5938C194.729 18.3229 194.948 18.0729 195.156 17.8438C195.385 17.6146 195.573 17.4167 195.719 17.25C196.219 16.75 196.656 16.2708 197.031 15.8125C197.427 15.3333 197.792 14.7708 198.125 14.125C198.479 14.2292 198.865 14.3125 199.281 14.375C199.719 14.4375 200.115 14.4167 200.469 14.3125C200.51 14.5625 200.604 14.7708 200.75 14.9375C200.917 15.1042 201.115 15.2292 201.344 15.3125C201.406 15.6458 201.542 16 201.75 16.375C201.958 16.75 202.167 17.1354 202.375 17.5312C202.583 17.9271 202.74 18.3125 202.844 18.6875C202.969 19.0625 202.99 19.4062 202.906 19.7188C202.844 19.9271 202.802 20.0938 202.781 20.2188C202.781 20.3438 202.771 20.4583 202.75 20.5625C202.729 20.6458 202.688 20.7292 202.625 20.8125C202.562 20.8958 202.458 21.0104 202.312 21.1562C202.5 21.3021 202.708 21.4375 202.938 21.5625C203.167 21.6875 203.396 21.7083 203.625 21.625C203.812 21.5417 203.948 21.4167 204.031 21.25C204.115 21.0833 204.177 20.9062 204.219 20.7188C204.281 20.5312 204.333 20.3542 204.375 20.1875C204.438 20 204.531 19.8438 204.656 19.7188C205.01 19.4062 205.344 19.0833 205.656 18.75C205.969 18.4167 206.292 18.1042 206.625 17.8125C206.958 17.5208 207.323 17.2708 207.719 17.0625C208.115 16.8542 208.562 16.7188 209.062 16.6562C209.438 16.7812 209.708 16.9896 209.875 17.2812C210.062 17.5729 210.219 17.8854 210.344 18.2188C210.469 18.5521 210.594 18.8854 210.719 19.2188C210.844 19.5521 211.052 19.8438 211.344 20.0938C211.302 20.4479 211.292 20.7812 211.312 21.0938C211.354 21.4062 211.583 21.6146 212 21.7188C212.042 22.1771 212.062 22.5833 212.062 22.9375C212.062 23.2917 212.073 23.6354 212.094 23.9688C212.135 24.2812 212.208 24.6146 212.312 24.9688C212.417 25.3021 212.583 25.6875 212.812 26.125L213.094 25.6875C213.219 25.4792 213.365 25.2917 213.531 25.125C213.698 24.9583 213.854 24.7917 214 24.625C214.167 24.4583 214.312 24.2812 214.438 24.0938C214.562 23.8854 214.656 23.6562 214.719 23.4062C215.01 23.3646 215.208 23.2708 215.312 23.125C215.417 22.9583 215.552 22.7917 215.719 22.625C215.698 22.3542 215.771 22.0104 215.938 21.5938C216.125 21.1562 216.344 20.7083 216.594 20.25C216.844 19.7917 217.094 19.3438 217.344 18.9062C217.594 18.4688 217.771 18.0833 217.875 17.75C218.458 17.5625 218.979 17.25 219.438 16.8125C219.917 16.375 220.385 15.9479 220.844 15.5312C221.323 15.0938 221.823 14.7396 222.344 14.4688C222.865 14.1771 223.479 14.1042 224.188 14.25C224.75 14.25 225.24 14.2917 225.656 14.375C226.094 14.4375 226.51 14.5312 226.906 14.6562C227.302 14.7812 227.698 14.9479 228.094 15.1562C228.49 15.3438 228.927 15.5625 229.406 15.8125C229.427 15.8125 229.49 15.8438 229.594 15.9062C229.698 15.9479 229.802 16 229.906 16.0625C230.01 16.125 230.104 16.1875 230.188 16.25C230.292 16.2917 230.344 16.3125 230.344 16.3125C230.635 16.7292 230.948 17.1979 231.281 17.7188C231.615 18.2188 231.781 18.7396 231.781 19.2812ZM243.75 32.4375C243.562 32.625 243.417 32.7708 243.312 32.875C243.229 32.9792 243.146 33.0833 243.062 33.1875C243 33.2708 242.917 33.3646 242.812 33.4688C242.729 33.5729 242.594 33.7292 242.406 33.9375C242.24 34.1042 242.083 34.2812 241.938 34.4688C241.792 34.6562 241.625 34.8229 241.438 34.9688C241.188 34.9062 240.99 34.9375 240.844 35.0625C240.719 35.1875 240.594 35.3333 240.469 35.5C240.365 35.6458 240.26 35.7917 240.156 35.9375C240.073 36.0625 239.958 36.1146 239.812 36.0938C239.312 36.3646 238.812 36.6042 238.312 36.8125C237.812 37 237.333 37.2812 236.875 37.6562L236.625 37.4062L233.375 38.9688C233.271 39.0104 233.167 39.0729 233.062 39.1562C232.958 39.2396 232.854 39.3125 232.75 39.375C232.292 39.625 231.812 39.8542 231.312 40.0625C230.833 40.25 230.354 40.4271 229.875 40.5938L229.469 40.7188C229.635 41.1354 229.635 41.4271 229.469 41.5938C229.302 41.7604 229.062 41.8854 228.75 41.9688C228.438 42.0312 228.094 42.0729 227.719 42.0938C227.344 42.1146 227.052 42.1875 226.844 42.3125C226.594 42.2708 226.333 42.25 226.062 42.25C225.812 42.2708 225.552 42.3021 225.281 42.3438C224.99 42.3854 224.719 42.4062 224.469 42.4062C224.219 42.4062 223.948 42.375 223.656 42.3125H223.594C223.24 42.4792 222.927 42.5104 222.656 42.4062C222.406 42.3229 222.177 42.1771 221.969 41.9688C221.76 41.7396 221.562 41.4792 221.375 41.1875C221.208 40.875 221.031 40.5938 220.844 40.3438C220.719 40.1771 220.562 39.9375 220.375 39.625C220.188 39.3125 220.031 38.9792 219.906 38.625C219.76 38.2708 219.677 37.9167 219.656 37.5625C219.615 37.1875 219.688 36.8646 219.875 36.5938C220.062 36.3229 220.219 36.0312 220.344 35.7188C220.448 35.4062 220.5 35.0417 220.5 34.625C220.5 34.4792 220.5 34.3438 220.5 34.2188C220.479 34.0938 220.469 33.9583 220.469 33.8125C220.573 33.8125 220.688 33.8229 220.812 33.8438C220.938 33.8438 221.052 33.8438 221.156 33.8438C221.281 33.8229 221.375 33.7812 221.438 33.7188C221.521 33.6354 221.562 33.5 221.562 33.3125C221.562 33.2083 221.521 33.125 221.438 33.0625C221.375 33 221.333 32.9375 221.312 32.875C221.438 32.6875 221.552 32.5417 221.656 32.4375C221.781 32.3125 221.885 32.1979 221.969 32.0938C222.052 31.9688 222.115 31.8333 222.156 31.6875C222.198 31.5208 222.188 31.3021 222.125 31.0312C222.375 30.5938 222.667 30.2083 223 29.875C223.354 29.5208 223.719 29.1979 224.094 28.9062C224.469 28.5938 224.854 28.2917 225.25 28C225.646 27.7083 226.021 27.3958 226.375 27.0625C226.771 27.2292 227.083 27.2292 227.312 27.0625C227.562 26.8958 227.781 26.7188 227.969 26.5312C228.156 26.3229 228.344 26.1562 228.531 26.0312C228.719 25.9062 228.969 25.9583 229.281 26.1875L229.344 26.25C229.906 25.6875 230.469 25.4375 231.031 25.5C231.615 25.5625 232.104 25.75 232.5 26.0625C232.917 26.375 233.188 26.7396 233.312 27.1562C233.438 27.5521 233.323 27.8229 232.969 27.9688C233.198 28.1979 233.312 28.4688 233.312 28.7812C233.312 29.0938 233.229 29.3646 233.062 29.5938C232.875 29.8438 232.708 30.1042 232.562 30.375C232.438 30.625 232.302 30.8958 232.156 31.1875C231.948 31.6667 231.719 32.125 231.469 32.5625C231.219 32.9792 230.865 33.3333 230.406 33.625C230.031 33.5208 229.771 33.5625 229.625 33.75C229.5 33.9375 229.406 34.1458 229.344 34.375C229.281 34.5833 229.208 34.75 229.125 34.875C229.042 35 228.865 34.9583 228.594 34.75L228.531 34.6875L228.469 34.75C228.302 34.9167 228.167 35.1042 228.062 35.3125C227.979 35.5208 227.854 35.6771 227.688 35.7812C227.5 35.7188 227.302 35.6667 227.094 35.625C226.885 35.5833 226.688 35.5417 226.5 35.5C226.5 35.9375 226.417 36.2812 226.25 36.5312C226.083 36.7812 225.865 36.9896 225.594 37.1562C225.344 37.3021 225.052 37.4271 224.719 37.5312C224.385 37.6146 224.052 37.7292 223.719 37.875C223.406 38 223.104 38.1667 222.812 38.375C222.542 38.5625 222.323 38.8333 222.156 39.1875C222.365 39.4167 222.625 39.5521 222.938 39.5938C223.25 39.6146 223.573 39.6146 223.906 39.5938C224.24 39.5521 224.562 39.5312 224.875 39.5312C225.208 39.5312 225.5 39.6146 225.75 39.7812L225.781 39.8125L225.812 39.7812C226.312 39.7188 226.792 39.6042 227.25 39.4375C227.729 39.25 228.188 39.0625 228.625 38.875C229.083 38.6667 229.542 38.4792 230 38.3125C230.479 38.125 230.969 37.9896 231.469 37.9062C231.573 38.0729 231.708 38.1667 231.875 38.1875C232.062 38.2083 232.24 38.1979 232.406 38.1562L232.438 38.0938C232.479 37.9479 232.521 37.8229 232.562 37.7188C232.604 37.5938 232.667 37.4583 232.75 37.3125C232.896 37.0833 233.073 36.9062 233.281 36.7812C233.49 36.6562 233.708 36.5625 233.938 36.5C234.188 36.4375 234.448 36.3958 234.719 36.375C234.99 36.3542 235.26 36.3229 235.531 36.2812H235.594L235.625 36.1875C235.708 35.9375 235.812 35.7708 235.938 35.6875C236.083 35.5833 236.229 35.5104 236.375 35.4688C236.542 35.4271 236.708 35.3958 236.875 35.375C237.062 35.3542 237.24 35.2917 237.406 35.1875C237.781 35.3125 238.094 35.2708 238.344 35.0625C238.594 34.8542 238.833 34.6354 239.062 34.4062L239.312 34.7188L239.406 34.5938C239.719 34.3021 239.948 34.0833 240.094 33.9375C240.26 33.7917 240.417 33.6667 240.562 33.5625C240.708 33.4375 240.875 33.3229 241.062 33.2188C241.271 33.0938 241.552 32.9167 241.906 32.6875C242.198 32.5 242.479 32.3125 242.75 32.125C243.042 31.9375 243.323 31.7292 243.594 31.5C243.698 31.5417 243.75 31.625 243.75 31.75C243.75 31.8542 243.75 31.9583 243.75 32.0625C243.729 32.1042 243.708 32.1667 243.688 32.25C243.688 32.3333 243.708 32.3958 243.75 32.4375ZM230.812 28.5312C230.792 28.5104 230.771 28.5 230.75 28.5C230.75 28.5 230.74 28.4896 230.719 28.4688C230.281 28.2396 229.917 28.1354 229.625 28.1562C229.333 28.1562 229.062 28.2396 228.812 28.4062C228.583 28.5521 228.365 28.75 228.156 29C227.969 29.2292 227.76 29.4479 227.531 29.6562C227.323 29.8438 227.073 29.9896 226.781 30.0938C226.49 30.1979 226.135 30.1875 225.719 30.0625C225.656 30.3958 225.594 30.7292 225.531 31.0625C225.49 31.375 225.458 31.6979 225.438 32.0312C225.083 32.1562 224.802 32.3333 224.594 32.5625C224.406 32.7917 224.24 33.0417 224.094 33.3125C223.969 33.5833 223.844 33.875 223.719 34.1875C223.615 34.4792 223.469 34.7604 223.281 35.0312L223.406 35.1875C223.49 35.1458 223.583 35.1771 223.688 35.2812C223.792 35.3854 223.865 35.4583 223.906 35.5C224.135 35.1667 224.438 34.8854 224.812 34.6562C225.208 34.4271 225.604 34.2188 226 34.0312C226.417 33.8229 226.812 33.6042 227.188 33.375C227.562 33.1458 227.844 32.8438 228.031 32.4688C228.698 32.2812 229.198 31.9062 229.531 31.3438C229.865 30.7812 230.146 30.1979 230.375 29.5938C230.417 29.4688 230.49 29.2917 230.594 29.0625C230.719 28.8125 230.792 28.6354 230.812 28.5312ZM261.719 33.5625C261.531 34.5625 261.198 35.375 260.719 36C260.26 36.6042 259.635 37.2188 258.844 37.8438C258.99 37.9062 259.073 37.9792 259.094 38.0625C259.135 38.125 259.156 38.2188 259.156 38.3438L259.094 38.5C258.906 38.3542 258.729 38.2812 258.562 38.2812C258.396 38.2604 258.24 38.2917 258.094 38.375C257.948 38.4375 257.802 38.5312 257.656 38.6562C257.51 38.7604 257.365 38.875 257.219 39C256.76 39 256.281 39.0729 255.781 39.2188C255.281 39.3438 254.792 39.4375 254.312 39.5C253.854 39.5625 253.427 39.5312 253.031 39.4062C252.635 39.2604 252.312 38.9167 252.062 38.375C251.896 38.3125 251.719 38.2604 251.531 38.2188C251.365 38.1562 251.198 38.1042 251.031 38.0625C250.677 38.7292 250.24 39.375 249.719 40C249.219 40.6042 248.656 41.1771 248.031 41.7188C247.406 42.2396 246.74 42.7083 246.031 43.125C245.344 43.5417 244.656 43.8646 243.969 44.0938L243.875 44.125C243.792 44 243.719 43.9167 243.656 43.875C243.594 43.8333 243.521 43.8229 243.438 43.8438C243.375 43.8646 243.292 43.8854 243.188 43.9062C243.104 43.9479 242.99 43.9688 242.844 43.9688L242.625 44.3438C242.333 44.1354 242.156 43.8958 242.094 43.625C242.031 43.375 241.875 43.1979 241.625 43.0938L241.344 43.4375L241.25 43.3438C240.875 42.9688 240.552 42.4792 240.281 41.875C240.01 41.2708 239.792 40.6354 239.625 39.9688C239.458 39.2812 239.354 38.6042 239.312 37.9375C239.25 37.2708 239.25 36.6875 239.312 36.1875C239.146 36.0208 238.948 35.875 238.719 35.75C238.49 35.625 238.354 35.4375 238.312 35.1875L238.344 35.1562C238.385 34.9062 238.51 34.7396 238.719 34.6562C238.906 34.5729 239.115 34.5208 239.344 34.5C239.573 34.4792 239.792 34.4688 240 34.4688C240.208 34.4688 240.344 34.4271 240.406 34.3438C240.406 34.2188 240.354 34.0938 240.25 33.9688C240.167 33.8438 240.083 33.7292 240 33.625C240 33.4167 240.052 33.2604 240.156 33.1562C240.26 33.0521 240.375 32.9583 240.5 32.875C240.625 32.7917 240.74 32.7188 240.844 32.6562C240.948 32.5938 241 32.5104 241 32.4062C241 32.3229 240.979 32.25 240.938 32.1875C240.896 32.125 240.854 32.0417 240.812 31.9375C241.125 31.8958 241.312 31.7917 241.375 31.625C241.438 31.4583 241.573 31.2812 241.781 31.0938C241.656 30.9271 241.635 30.75 241.719 30.5625C241.802 30.3542 241.896 30.1562 242 29.9688C242.104 29.7604 242.177 29.5729 242.219 29.4062C242.281 29.2188 242.229 29.0521 242.062 28.9062C242.042 28.9062 242.031 28.9062 242.031 28.9062C242.031 28.8854 242.021 28.875 242 28.875C242.438 27.5833 242.865 26.2917 243.281 25C243.719 23.6875 244.177 22.3958 244.656 21.125C245.156 19.8542 245.688 18.6042 246.25 17.375C246.833 16.1458 247.49 14.9479 248.219 13.7812C248.24 13.5104 248.312 13.3021 248.438 13.1562C248.583 13.0104 248.75 12.9062 248.938 12.8438C249.125 12.7604 249.333 12.6875 249.562 12.625C249.792 12.5625 250 12.4792 250.188 12.375C250.375 12.25 250.531 12.0938 250.656 11.9062C250.781 11.7188 250.844 11.4479 250.844 11.0938C251.177 11.1771 251.49 11.2188 251.781 11.2188C252.073 11.2188 252.354 11.2292 252.625 11.25C252.917 11.2708 253.188 11.3333 253.438 11.4375C253.708 11.5417 253.969 11.75 254.219 12.0625L254.25 12.0938C254.271 12.1771 254.26 12.3021 254.219 12.4688C254.198 12.6146 254.188 12.7396 254.188 12.8438C254.188 13.2604 254.219 13.6875 254.281 14.125C254.365 14.5625 254.396 15 254.375 15.4375C254.354 15.8542 254.26 16.25 254.094 16.625C253.927 16.9792 253.615 17.2917 253.156 17.5625C253.365 18.1042 253.365 18.5938 253.156 19.0312C252.969 19.4479 252.708 19.8542 252.375 20.25C252.042 20.6458 251.719 21.0521 251.406 21.4688C251.115 21.8854 250.969 22.3542 250.969 22.875C250.635 23.0417 250.375 23.2812 250.188 23.5938C250 23.8854 249.812 24.1979 249.625 24.5312C249.458 24.8646 249.26 25.1771 249.031 25.4688C248.823 25.7396 248.51 25.9375 248.094 26.0625C247.906 26.8125 247.562 27.4792 247.062 28.0625C246.562 28.6458 246.052 29.2188 245.531 29.7812C245.01 30.3438 244.542 30.9271 244.125 31.5312C243.729 32.1354 243.531 32.8333 243.531 33.625C242.948 34.1875 242.562 34.8333 242.375 35.5625C242.208 36.2917 242.125 37.0417 242.125 37.8125C242.125 38.0417 242.135 38.2708 242.156 38.5C242.177 38.7292 242.188 38.9583 242.188 39.1875C242.021 39.0833 241.875 39.125 241.75 39.3125L241.719 39.375C241.885 39.8125 242.073 40.2396 242.281 40.6562C242.51 41.0521 242.792 41.4271 243.125 41.7812C243.667 41.6146 244.198 41.4375 244.719 41.25C245.26 41.0417 245.812 40.8646 246.375 40.7188C246.5 40.2188 246.729 39.875 247.062 39.6875C247.417 39.4792 247.76 39.3021 248.094 39.1562C248.448 39.0104 248.76 38.8333 249.031 38.625C249.302 38.4167 249.438 38.0417 249.438 37.5H249.5C249.812 37.4375 250.052 37.3021 250.219 37.0938C250.385 36.8646 250.51 36.6146 250.594 36.3438C250.698 36.0521 250.76 35.75 250.781 35.4375C250.823 35.125 250.854 34.8438 250.875 34.5938C250.812 34.4896 250.792 34.3438 250.812 34.1562C250.854 33.9479 250.885 33.7396 250.906 33.5312C250.948 33.3021 250.958 33.0729 250.938 32.8438C250.938 32.6146 250.885 32.4062 250.781 32.2188V32.1562L250.812 32.0938C250.917 31.8854 251.021 31.6979 251.125 31.5312C251.229 31.3438 251.323 31.1458 251.406 30.9375C251.615 30.375 251.854 29.9375 252.125 29.625C252.396 29.3125 252.865 29.1562 253.531 29.1562C253.948 29.4062 254.188 29.6771 254.25 29.9688C254.333 30.2604 254.333 30.5729 254.25 30.9062C254.167 31.2396 254.073 31.5938 253.969 31.9688C253.865 32.3229 253.844 32.6771 253.906 33.0312L253.969 33.125C253.844 33.1458 253.729 33.2083 253.625 33.3125C253.521 33.4167 253.417 33.5312 253.312 33.6562C253.208 33.7812 253.104 33.9062 253 34.0312C252.917 34.1562 252.844 34.2604 252.781 34.3438C252.927 34.5729 253.01 34.8125 253.031 35.0625C253.052 35.2917 253.073 35.5104 253.094 35.7188C253.135 35.9062 253.219 36.0833 253.344 36.25C253.49 36.3958 253.74 36.4792 254.094 36.5C254.469 36.5417 254.854 36.5938 255.25 36.6562C255.646 36.7188 256.031 36.7604 256.406 36.7812C256.802 36.7812 257.177 36.7396 257.531 36.6562C257.906 36.5729 258.25 36.3958 258.562 36.125C258.562 35.8542 258.615 35.6771 258.719 35.5938C258.844 35.5104 258.979 35.4583 259.125 35.4375C259.292 35.4167 259.458 35.4062 259.625 35.4062C259.792 35.3854 259.927 35.3021 260.031 35.1562C259.906 35.1146 259.823 35.0729 259.781 35.0312C259.76 34.9688 259.677 35 259.531 35.125L259.438 34.6875L259.625 34.5625C259.771 34.6875 259.917 34.7292 260.062 34.6875C260.208 34.625 260.344 34.5417 260.469 34.4375C260.615 34.3125 260.75 34.1875 260.875 34.0625C261.021 33.9167 261.156 33.8125 261.281 33.75L261.469 33.4688L261.719 33.5625ZM252.281 13.6875C252.219 13.7083 252.146 13.7396 252.062 13.7812C251.771 13.9271 251.458 14.0938 251.125 14.2812C250.792 14.4688 250.479 14.6875 250.188 14.9375C249.917 15.1667 249.688 15.4375 249.5 15.75C249.312 16.0417 249.219 16.375 249.219 16.75C249.219 16.8125 249.219 16.9167 249.219 17.0625C249.219 17.1875 249.24 17.2708 249.281 17.3125C249.198 17.3542 249.115 17.4479 249.031 17.5938C248.969 17.7188 248.885 17.8646 248.781 18.0312C248.698 18.1771 248.583 18.3229 248.438 18.4688C248.312 18.5938 248.146 18.6771 247.938 18.7188C248.125 18.9896 248.219 19.2708 248.219 19.5625C248.219 19.8333 248.167 20.1042 248.062 20.375C247.958 20.6458 247.812 20.9167 247.625 21.1875C247.458 21.4375 247.292 21.6771 247.125 21.9062L247 21.8125C247.104 22.2292 247.115 22.625 247.031 23C246.969 23.3542 246.865 23.7083 246.719 24.0625C246.594 24.3958 246.448 24.7292 246.281 25.0625C246.115 25.3958 245.979 25.75 245.875 26.125C246.042 25.9375 246.188 25.7396 246.312 25.5312C246.458 25.3229 246.604 25.1146 246.75 24.9062C246.792 24.9479 246.865 25.0104 246.969 25.0938C247.094 25.1562 247.177 25.1875 247.219 25.1875C247.156 25.0833 247.094 24.9688 247.031 24.8438C246.969 24.7188 246.906 24.6042 246.844 24.5V24.4375C247.115 23.9792 247.448 23.5833 247.844 23.25C248.24 22.8958 248.615 22.5417 248.969 22.1875C248.969 21.6042 249.083 21.1354 249.312 20.7812C249.562 20.4062 249.833 20.0729 250.125 19.7812C250.438 19.4688 250.708 19.1667 250.938 18.875C251.188 18.5625 251.312 18.1771 251.312 17.7188C251.312 17.6146 251.302 17.4792 251.281 17.3125C251.26 17.125 251.229 16.9792 251.188 16.875L251.281 16.8438C251.677 16.7188 251.938 16.5417 252.062 16.3125C252.188 16.0625 252.25 15.8021 252.25 15.5312C252.271 15.2396 252.26 14.9375 252.219 14.625C252.198 14.2917 252.219 13.9792 252.281 13.6875Z" fill="#222222"/>
</svg>
